<?xml version="1.0" encoding="utf-8"?>
<!-- Generator: Adobe Illustrator 24.1.3, SVG Export Plug-In . SVG Version: 6.00 Build 0)  -->
<svg version="1.1" id="Capa_1" xmlns="http://www.w3.org/2000/svg" xmlns:xlink="http://www.w3.org/1999/xlink" x="0px" y="0px"
	 viewBox="0 0 1080 1080" style="enable-background:new 0 0 1080 1080;" xml:space="preserve">
<g>
	<g>
		<path d="M1009.6,445.1v-21.3c-20.2-50-42.5-60.7-96.6-44.7c-14.4,4.3-9.3-6.9-10.7-11.7c-12.6-44.9-53.5-63.8-95.1-43
			c-16.5,8.2-32.4,17.7-48.7,26.4c-5.3,2.9-11,8.5-16.4,0.1c-16.1-25.2-40.6-35.3-69.7-36.3c18.1-53.6,7.7-89.6-29.9-108.6
			c-37.8-19-72-5.2-105.5,42.6c-51.7-57.6-114-27.8-137.6,25.5c-41.9,94.8-89.8,186.9-135.3,280c-7.1,14.4-15.2,28.3-23.9,44.4
			c-11.6-23.9-15.6-47.6-29.3-67.1c-18.7-26.5-43.6-41.1-76.6-35.7c-31.2,5.1-49.7,25.5-59.5,54.6c-1.6,4.7-3,9.4-4.5,14.1v25.6
			c22.8,74.5,47.5,148.3,71.2,222.6C173.3,912.4,242,971,336.7,1005.3c30.1,10.9,61.1,18.1,92.3,24.6h59.8
			c65.9-17,114.2-55.3,142.3-117.8c4.5-10,12.9-14.5,21.7-19.3c97.8-53.6,195.6-107.2,293.1-161.1c38.2-21.1,50.3-60.5,29-93.2
			c-5-7.6-12-13.9-19.1-22c20.4-13.4,40-28.1,42.6-55.9c2.4-26.6-8-46.9-31.1-64.4C988.7,484.4,1002.7,467.4,1009.6,445.1z
			 M753.4,393.8c5.6-16.1,81.9-51,97.8-45.3c23.7,8.4,29.8,42.1,8.5,56.8c-22,15.2-45.6,29-70.3,38.9c-15.4,6.2-31.2-9-48.1-8.8
			C745.5,420.7,748.8,407,753.4,393.8z M594.8,907c-28.8,55.9-74.2,88.5-142.9,89.5c-80.3-7.4-154.9-37.2-219.1-91.9
			c-21.8-18.6-32.9-44.3-44-69.7c-33.5-77-55.1-158.1-80.5-237.9c-4.2-13.3-3.8-26.6,1.3-39.7c12.1-31.1,46-37.2,68.1-12
			c8.1,9.2,12.7,20.3,16.9,31.7c7.9,21.3,16.2,42.4,24.9,63.4c3.2,7.8,7.5,15.1,18,15.8c11.2,0.7,14.2-7.1,18.5-14.5
			c43.7-76.6,78.9-157.4,118.5-236c21.7-43.1,42.6-86.7,64-129.9c8.5-17.1,22.2-25.4,41.5-23.2c16.8,2,26.6,12.4,31.8,27.7
			c4.3,12.6-1,23.6-6.3,34.6c-30.5,62.6-60.5,125.4-91.4,187.7c-6.5,13.1-7.5,19.7,7.9,27.4c16,8,19.2-0.3,24.6-11.3
			c42.1-86.9,84.4-173.7,126.9-260.4c9.8-19.9,27.2-29.2,44.6-24.5c18.5,5,28.9,17.6,30.2,36.8c0.7,10.3-4.2,19.2-8.6,28.2
			c-41.3,84.9-82.4,170-124.2,254.7c-6.4,13-5.4,18.8,8.2,25.7c14.4,7.4,19.3,2.6,25.2-9.8c30.3-63.4,61.4-126.5,92.1-189.7
			c6.4-13.2,14.1-25,29.9-27.7c15-2.6,28.3,0.5,38.3,12.9c11.1,13.7,11.5,28.4,4,43.9c-23,47.2-46,94.5-69.1,141.7
			c-8.7,17.9-16.9,36.1-26.4,53.5c-6.4,11.7-5.9,18.2,7.4,24.6c12.6,6.1,18,4.3,23.9-8.4c19.1-41.2,39.4-81.9,59.4-122.7
			c7.8-15.9,20.1-25.9,38.5-25.4c15.6,0.5,26.9,8.8,33.2,22.9c6.3,14.1,2.7,27.6-3.8,40.9c-28.1,57.4-56,114.9-84,172.4
			C660,774.4,628.6,841.3,594.8,907z M953.6,580.6c-8.7,6.1-18.3,10.8-27.6,15.9c-47.2,26-94.3,52.3-141.9,77.7
			c-11.2,6-13.9,10.8-7.3,22.7c6.6,12,12.8,9.8,21.9,4.6c32.8-18.4,65.7-36.6,98.7-54.6c22.8-12.4,41.7-9.2,52.1,8.2
			c11,18.4,4.1,37.6-19.5,50.6c-85.1,47-170.3,93.7-255.5,140.5c-2.3,1.3-4.9,2-13.4,5.6c25-51.5,46.9-97.4,69.4-143.1
			c18.5-37.5,30.6-81.2,58.2-110.2c27.1-28.5,70-41.8,106-61.7c8.7-4.8,17.3-9.8,26.4-13.9c17.6-8,32.2-2.7,42.5,12.8
			C973.5,550.7,969.2,569.6,953.6,580.6z M964.6,460.7c-48.8,28.3-98.4,55.1-152,84.9c6.6-26.2,8.7-47.6-1.7-68.5
			c-3.6-7.1,3.8-9.6,8.6-12.2c35.9-19.9,71.6-40.1,107.9-59.3c18-9.5,37.1-3.9,46.4,11.8C982.6,432.4,980.1,451.7,964.6,460.7z
			 M706.3,187.4c16.4,0.1,20.8-12.3,20.9-26.5c0.3-25.5,0-51.1,0.8-76.6c0.3-9.4-1.6-17.5-6.3-24.4c-4.2-6.3-12-9.5-19.4-7.7
			c0,0-0.1,0-0.1,0c-11.7,5.5-15.9,15.1-15.9,27.5c0,27-0.4,53.9-0.5,80.9C685.8,174.8,689.7,187.4,706.3,187.4z M803.2,176.6
			c16,7.2,25.1-3.6,30.8-18.7c8.9-23.4,20-45.9,30.5-68.7c7-15,7-28.5-4.4-36.9c-0.1,0-0.1-0.1-0.2-0.1c-9.2-4.7-20.6-1.2-25.9,7.7
			c-15.9,26.6-25,56.5-38.6,84.2C789.1,157.2,788.3,169.9,803.2,176.6z M838.9,252.2c2.9,7.1,8.8,10.8,18.1,10.9
			c1.5-0.2,4.9,0.2,7-1.3c31.8-22.4,63.8-44.5,94.9-68c7.9-6,7.3-16.5,0.8-25c-6.6-8.8-16.8-10.7-24.7-5.4
			c-31.1,21-61.5,43.1-91.7,65.4C835.6,234.6,835.5,243.8,838.9,252.2z"/>
	</g>
</g>
</svg>
