<?xml version="1.0" encoding="utf-8"?>
<!-- Generator: Adobe Illustrator 24.1.3, SVG Export Plug-In . SVG Version: 6.00 Build 0)  -->
<svg version="1.1" id="Capa_1" xmlns="http://www.w3.org/2000/svg" xmlns:xlink="http://www.w3.org/1999/xlink" x="0px" y="0px"
	 viewBox="0 0 1080 1080" style="enable-background:new 0 0 1080 1080;" xml:space="preserve">
<g>
	<path d="M182.8,753.7c-13.7-10.6-38.2-10.2-30.2-30.6c8.4-21.4,25.5-4.4,38.4-0.8c20.9,5.9,42,10.6,63.8,11.6
		c22.5,1,45,2.4,67.5,1.9c63.1-1.3,124.9,3.4,182.3,33.3c5.3,2.7,12.3,9,18,2.6c4.9-5.6,0.2-12.6-2.4-18.6
		c-6.3-14.4-18.2-23.7-30.9-31.8c-22.7-14.4-48-22.8-73.1-31.8c-66.3-23.7-108.8-70-123.4-138.8c-10.5-49.5,2.6-94.1,45.8-123.5
		c42.2-28.7,87.2-29.6,131.2-0.8c15.9,10.4,32.5,19.5,55,23.4c-13.9-24.6-32.1-40.7-52.3-52.7c-28.5-17-59.5-29.9-89.2-44.8
		c-7.4-3.7-14.1-2.9-21.6-0.2C321,367,280.9,384,243.5,405.5c-30,17.2-44,49.5-59.3,78.9c-26.5,51.2-56.4,100.1-91.3,146
		c-4,5.3-8,10.7-12.4,15.7c-6.1,6.8-13.2,10.9-21.7,4c-8-6.5-7.1-14.3-2.1-22.2c2.3-3.5,4.9-6.8,7.4-10.1
		c49.5-63.6,90.8-131.6,114.7-209.2c9.8-31.8,27.8-55.6,58-71.4c27.2-14.2,53-31.5,78.8-48.3c30.6-19.9,61.4-23.2,94.4-6.3
		c17,8.7,34.5,16.6,52.4,23.5c24.7,9.6,41.7,27,53.3,50.1c8.1,16.1,15.5,32.5,23.2,48.8c1.9-1,4.1-1.6,4.4-2.6
		c20.6-84.5,89.7-109.5,161.3-130.7c16.1-4.7,31.6,2,45.3,10c38.8,22.8,77.2,46.1,115.4,69.8c15.6,9.6,24.4,25.3,29.8,42.1
		c26.7,84.5,69.4,160.2,124.6,229.2c6.6,8.2,12,17.7,1.9,26.3c-12.2,10.3-19.8,0.1-26.5-8.5c-32.8-42.2-67.2-84.5-86.3-134.2
		C874,416.3,799.6,379.7,716.4,351.7c-5.7-1.9-11.4-3.8-17-0.9c-45.6,23.5-96.2,39.1-131.1,80c-4.2,5-9.7,9.2-10.9,17.5
		c21.1-1.6,37.7-12.7,54.4-23.2c43.5-27.4,87.6-26.2,129.2,1.8c41.6,28,55.5,71,46.9,118.6c-12.9,71.3-56.1,119.2-124.2,143.9
		c-28.2,10.2-56.8,19.5-81.3,37.5c-4.7,3.4-9.3,7.2-13,11.6c-8,9.5-19.6,21.8-11.8,32.5c6.7,9.2,19.7-2.2,28.7-6.6
		c46.9-23.1,96.9-28.1,148.3-28.5c58.1-0.5,117,3.8,172.3-21.1c8.4-3.8,17-1.9,20.9,7.6c4.1,9.8-1.9,15.9-9.7,20.2
		c-6.2,3.5-12.9,6.1-21.8,10.2c11.2,8.1,20.7,14.5,29.6,21.6c7.2,5.7,10.8,13.3,4.4,21.7c-6,8.1-14.8,9.3-21.8,2.6
		c-39.7-38.1-88.1-34-137.8-33.2c-67.2,1.1-132.9,3.9-194.5,35.4c-21.3,10.9-48.1,11.4-67.7,1.4c-70.7-36-146-34.3-221.9-37.6
		c-42.2-1.8-78.8,3.6-111.2,31.1c-8.3,7-17.8,11.3-26,0.5c-8.3-11-0.6-18.5,7.9-24.8C165.3,765.8,173.4,760.3,182.8,753.7z
		 M759.6,520.4c-1.2-27.5-11.4-55.9-41.7-72.2c-28-15.1-57.9-18.2-85.4,0.5c-62.3,42.6-122.7,41.6-185.7,0.1
		c-46.8-30.9-108.5-4.2-122.9,49.9c-16.1,60.2,29.7,137.9,95,159.9c41.1,13.9,82.5,26.9,113.9,59.3c5.3,5.5,9,5.3,14.3-0.1
		c31.4-32.3,72.8-45.4,113.9-59.2C713.8,640.9,759.3,578.8,759.6,520.4z M480.8,365.7c1-2,2.1-4.1,3.1-6.1
		c-30-31.7-71.4-43.6-111.4-56.6c-17.2-5.6-69.1,23.6-97.4,51.6c23.5-9.6,44.4-17.1,64.3-26.5c24.6-11.6,47.4-10.3,71,2.8
		C433.3,343.6,457.3,354.2,480.8,365.7z M803.7,353.3c-33.6-18.6-58.6-58.1-99.5-48.7c-39.2,9.1-79.8,22.8-106.5,61.2
		C664.1,319,731.4,301.4,803.7,353.3z"/>
</g>
</svg>
