<svg xmlns="http://www.w3.org/2000/svg" width="2324.86" height="199.14" viewBox="0 0 2324.86 199.14"><polygon points="242.05 120.26 239.27 135.86 273.99 135.86 283.94 120.1 242.05 120.26" fill="#575756"/><polygon points="301.54 110.04 295.2 121.63 338.8 121.47 341.85 109.89 301.54 110.04" fill="#575756"/><polygon points="321.54 63.4 334.17 63.4 295.2 135.86 278.09 135.86 321.54 63.4" fill="#575756"/><polygon points="334.17 63.4 321.54 63.4 331.16 135.86 349.44 135.86 334.17 63.4" fill="#575756"/><polygon points="451.73 107.48 568.5 107.48 578.25 91.88 451.73 91.88 451.73 107.48" fill="#575756"/><polygon points="462.81 86.16 582.02 86.16 587.66 77.12 461.49 77.12 462.81 86.16" fill="#575756"/><polygon points="203.09 63.56 218.94 63.56 206.06 135.86 190.22 135.86 203.09 63.56" fill="#575756"/><polygon points="203.05 63.55 200.31 79.16 243.91 79.01 246.66 63.4 203.05 63.55" fill="#575756"/><polygon points="203.06 91.88 200.3 107.59 231.67 107.44 241.55 91.88 203.06 91.88" fill="#575756"/><polygon points="415.63 92.02 412.84 107.56 456.44 107.41 459.24 91.87 415.63 92.02" fill="#575756"/><polygon points="252.18 63.4 268.02 63.4 255.12 135.86 239.27 135.86 252.18 63.4" fill="#575756"/><polygon points="419.97 63.4 435.82 63.4 422.92 135.87 407.07 135.87 419.97 63.4" fill="#575756"/><polygon points="454.87 63.4 470.71 63.4 457.81 135.87 441.96 135.87 454.87 63.4" fill="#575756"/><polygon points="204.58 91.88 88.53 91.88 78.78 107.48 196.07 107.48 204.58 91.88" fill="#575756"/><polygon points="207.9 77.08 97.93 77.08 92.29 86.11 209.22 86.11 207.9 77.08" fill="#575756"/><path d="M388.53,62.87s-14.39-1.18-24.73,7.73c-8,6.9-10.45,19.45-3.74,27.05,4.29,4.86,10.71,6.7,18.13,8.8L367.33,84.34Z" fill="#575756"/><path d="M397.64,95.48a56.94,56.94,0,0,0-9.89-3.7c-2.33-.64-4.24-1-10.21-2.68-5.18-1.42-4.37-6.69-2.35-8.94A13.58,13.58,0,0,1,385.69,76h.19c.43,0,.86,0,1.29.07a14.85,14.85,0,0,1,3.88.75l.33.08v0c3.07,1.17,5.17,3.43,6.91,6.72l11.22-9.31a25.86,25.86,0,0,0-22-11.46q-12,0-19.71,6.86t-8.83,15.86a17.31,17.31,0,0,0,1.36,9.81A14.81,14.81,0,0,0,366.4,102a48.38,48.38,0,0,0,11.19,4.27q7.82,2.19,9.84,3.72t1.6,5a8.4,8.4,0,0,1-3.66,5.92q-3.22,2.33-8.7,2.33c-8.08,0-11.22-2.25-16.29-9.47l-10.58,8.42s2.94,5.61,6.52,8.38c4.76,3.69,10.28,5.78,18.08,5.78q13.68,0,21.94-6.73a25.08,25.08,0,0,0,9.52-16.77,18.32,18.32,0,0,0-1.37-10.58A14.91,14.91,0,0,0,397.64,95.48Z" fill="#575756"/><path d="M1025.64,80.39V91.33H992.42V39.59H1004v40.8Z" fill="#575756"/><path d="M1028.94,72.21c0-11.4,8.85-20,20.62-20s20.62,8.62,20.62,20-8.85,20-20.62,20S1028.94,83.61,1028.94,72.21Zm30,0a9.37,9.37,0,1,0-9.37,9.45A9.16,9.16,0,0,0,1058.93,72.21Z" fill="#575756"/><path d="M1115.92,102.58l-11.25,3.08c-.3-2.48-2.4-4.13-5.47-4.13h-11.93c-7.42,0-12.29-4.27-12.29-10.65a11.62,11.62,0,0,1,5.25-9.9,16.26,16.26,0,0,1-5-11.92c0-9.67,7.72-16.87,18.07-16.87a21.36,21.36,0,0,1,8,1.57c1.12-4.12,5-6.74,10.19-6.74h3.23V57.14H1112a3.47,3.47,0,0,0-3.6,2.32,16.56,16.56,0,0,1,3,9.6c0,9.68-7.8,16.87-18.15,16.87a19.76,19.76,0,0,1-5.62-.75,3.52,3.52,0,0,0-1.73,2.93c0,1.72,1.43,2.85,3.45,2.85h11.93C1109,91,1114.5,95.23,1115.92,102.58Zm-29.47-33.52a6.51,6.51,0,0,0,6.82,6.53,6.54,6.54,0,1,0,0-13.05A6.46,6.46,0,0,0,1086.45,69.06Z" fill="#575756"/><path d="M1126.56,38.09h13.73l-9.75,11.1h-11.48Zm-6.75,15h11V91.33h-11Z" fill="#575756"/><path d="M1137.06,86.46l5.1-7a16.56,16.56,0,0,0,10.95,4.12c3.6,0,6.07-1,6.07-3.07s-2.92-2.92-6.82-3.82c-6.08-1.35-14.1-3.15-14.1-12.15,0-8.25,7.2-12.3,15.9-12.3a25,25,0,0,1,15.22,5l-5.1,7.05a17,17,0,0,0-9.75-3.37c-2.92,0-5.32.82-5.32,2.77,0,2.18,2.92,2.85,6.82,3.68,6,1.27,14.1,3.15,14.1,12.07,0,8.4-7.35,12.82-16.65,12.82A25.38,25.38,0,0,1,1137.06,86.46Z" fill="#575756"/><path d="M1190.3,63.06v14c0,2.92,1.57,4.57,4.8,4.57a10.59,10.59,0,0,0,5-1.35V90.58a15.32,15.32,0,0,1-7.35,1.65c-9.3,0-13.42-5.47-13.42-13.34V63.06h-5.78v-10h5.78V43.64h11v9.45h9.82v10Z" fill="#575756"/><path d="M1206.12,41.47a6.79,6.79,0,1,1,6.74,6.75A6.56,6.56,0,0,1,1206.12,41.47Zm1.27,11.62h10.95V91.33h-10.95Z" fill="#575756"/><path d="M1225.31,72.21c0-11.4,8.85-20,20.62-20,7.73,0,14.17,3.67,17.7,9.52l-9.52,5.78a9.45,9.45,0,1,0,0,9.45l9.52,5.77c-3.53,5.85-10,9.52-17.7,9.52C1234.16,92.23,1225.31,83.61,1225.31,72.21Z" fill="#575756"/><path d="M1307.64,53.09V91.33H1296.7V87.51a15.77,15.77,0,0,1-11.55,4.72c-10.5,0-18.45-8.62-18.45-20s8-20,18.45-20a15.77,15.77,0,0,1,11.55,4.72V53.09ZM1296.7,72.21a9.34,9.34,0,1,0-9.38,9.45A9.17,9.17,0,0,0,1296.7,72.21Z" fill="#575756"/><path d="M1313.94,86.46l5.1-7a16.56,16.56,0,0,0,11,4.12c3.6,0,6.07-1,6.07-3.07s-2.92-2.92-6.82-3.82c-6.08-1.35-14.1-3.15-14.1-12.15,0-8.25,7.2-12.3,15.9-12.3a25.07,25.07,0,0,1,15.22,5l-5.1,7.05a17,17,0,0,0-9.75-3.37c-2.92,0-5.32.82-5.32,2.77,0,2.18,2.92,2.85,6.82,3.68,6,1.27,14.1,3.15,14.1,12.07,0,8.4-7.35,12.82-16.65,12.82A25.38,25.38,0,0,1,1313.94,86.46Z" fill="#575756"/><path d="M992.77,107.93h6V153h-6Z" fill="#575756"/><path d="M1046.11,132.45V153h-5.62V134.21c0-6-3.79-9.87-9.74-9.87-6.15,0-10.2,4-10.2,10V153h-5.62V119.7h5.62v5.1c2.62-3.79,6.8-5.89,12-5.89C1040.69,118.91,1046.11,124.27,1046.11,132.45Z" fill="#575756"/><path d="M1068.67,124.8v18.43c0,3.6,2,5.17,5.36,5.17a9.58,9.58,0,0,0,4.64-1.24v5.29a11.58,11.58,0,0,1-5.82,1.38c-6.47,0-9.81-3.53-9.81-9.68V124.8h-6v-5.1h6v-9h5.63v9h10v5.1Z" fill="#575756"/><path d="M1123.25,138.85h-28.7c1.11,5.82,5.89,9.81,12.36,9.81a13.77,13.77,0,0,0,11.24-5.43l3.86,3.34a18.81,18.81,0,0,1-15.3,7.26c-10.46,0-18.24-7.59-18.24-17.59s7.52-17.33,17.52-17.33a17,17,0,0,1,17.39,17.46C1123.38,137.15,1123.32,138.07,1123.25,138.85Zm-28.76-5.1h22.94a11.64,11.64,0,0,0-22.94,0Z" fill="#575756"/><path d="M1168.75,162.85l-5.82,1.5c-.13-3-2.74-5-6.53-5h-12.29c-5.56,0-9.29-3.2-9.29-7.91a8.6,8.6,0,0,1,4.12-7.52,14.34,14.34,0,0,1-4.58-10.59c0-8.24,6.54-14.45,15.24-14.45a16,16,0,0,1,8.17,2.16c.65-3.53,3.53-5.75,7.58-5.75h2.55v5.23h-2.22c-2.42,0-4,1.44-4.12,3.66a14,14,0,0,1,3.27,9.15c0,8.24-6.6,14.52-15.23,14.52a15.63,15.63,0,0,1-7.06-1.57,4.52,4.52,0,0,0-2.09,3.72c0,2.36,1.89,3.86,4.7,3.86h12.23C1163.65,153.89,1168.1,157.29,1168.75,162.85Zm-28.57-29.49a9.42,9.42,0,1,0,9.42-9.09A9.08,9.08,0,0,0,1140.18,133.36Z" fill="#575756"/><path d="M1197.32,119.17V125h-1.11c-7.06,0-11.38,4.45-11.38,11.38V153h-5.62V119.7h5.62v5.75a12.88,12.88,0,0,1,11.38-6.28Z" fill="#575756"/><path d="M1241.19,119.7V153h-5.63v-6a15.24,15.24,0,0,1-12.94,6.8c-9.55,0-16.67-7.52-16.67-17.46s7.12-17.46,16.67-17.46a15.24,15.24,0,0,1,12.94,6.8v-6Zm-5.63,16.67a11.93,11.93,0,1,0-11.9,12A11.69,11.69,0,0,0,1235.56,136.37Z" fill="#575756"/><path d="M1256.81,106h5.62V153h-5.62Z" fill="#575756"/><path d="M1310.61,138.85h-28.7c1.11,5.82,5.88,9.81,12.36,9.81a13.79,13.79,0,0,0,11.24-5.43l3.86,3.34a18.84,18.84,0,0,1-15.3,7.26c-10.46,0-18.24-7.59-18.24-17.59s7.52-17.33,17.52-17.33a17,17,0,0,1,17.39,17.46C1310.74,137.15,1310.68,138.07,1310.61,138.85Zm-28.77-5.1h23a11.64,11.64,0,0,0-23,0Z" fill="#575756"/><path d="M1321.39,148.6l3.14-4.06a14.14,14.14,0,0,0,10.33,4.19c4.38,0,7.72-1.7,7.72-4.71,0-3.2-3.73-4.19-8.11-5.23-5.49-1.37-12-3.07-12-10.07,0-6.47,5.89-9.81,12.75-9.81a17.93,17.93,0,0,1,12.23,4.58l-3.14,4.12a12.84,12.84,0,0,0-9-3.6c-3.86,0-7.06,1.51-7.06,4.38,0,3.27,3.79,4.19,8.24,5.23,5.49,1.31,11.89,2.95,11.89,9.88,0,6.6-6,10.33-13.46,10.33A19.29,19.29,0,0,1,1321.39,148.6Z" fill="#575756"/><path d="M1346.21,44.18l26.4-1s1.5-.1,1.9.79a2.38,2.38,0,0,1-.37,2.21c-.27.42-12.68,22.69-12.68,22.69a1.72,1.72,0,0,1-2.21.93c-1.53-.59-.74-2.58-.74-2.58s4.36-14-11.42-19.67c0,0-2.43-.35-2.61-1.17S1344.15,44.25,1346.21,44.18Z" fill="#575756"/><path d="M2218.86,115.79a5.58,5.58,0,0,0-1.18-5.19c-1.23-1.33-3.81-2.45-7.72-3.37q-14-2.51-19.25-7.84t-3-16.42a26.47,26.47,0,0,1,11-16.68q9-6.47,22.42-6.46,13,0,19.87,6.85t4.45,17.67l-.19.4h-21.43c.57-3,.47-5-.3-6.2s-2.69-1.78-5.77-1.78a8.42,8.42,0,0,0-5.67,1.75,7.16,7.16,0,0,0-2.5,4.32c-.49,2.37-.15,4.2,1,5.47s4.08,2.42,8.74,3.43q12.72,2.37,18.16,7.78t3.33,16a26.16,26.16,0,0,1-11.7,17.27q-9.54,6.33-23.38,6.33-14.76,0-22.08-7.15t-4.75-17.9l.13-.4h21.49q-.72,4.74,1.29,6.53t7.29,1.78c3,0,5.26-.57,6.82-1.7a7.2,7.2,0,0,0,2.93-4.51" fill="#575756"/><polygon points="1782.72 61.04 1758.71 112.62 1758.31 112.56 1755.14 61.04 1728.23 61.04 1712.86 137.88 1734.89 137.88 1742.02 102.2 1742.41 102.2 1746.17 137.88 1760.82 137.88 1780.34 99.17 1780.74 99.3 1773.02 137.88 1794.98 137.88 1810.35 61.04 1782.72 61.04" fill="#575756"/><path d="M1866.46,59.92q-13.45,0-22.42,6.46a27.1,27.1,0,0,0-9.44,11.53L1838,61h-22.09l-15.37,76.84h22.1l2.31-11.59a18.07,18.07,0,0,0,4.08,5.82q7.32,7.15,22.09,7.16,13.86,0,23.39-6.33a26.23,26.23,0,0,0,11.71-17.28q2.1-10.62-3.34-16t-18.17-7.79q-7-1.52-8.74-3.43c-1.16-1.27-1.5-3.1-1-5.47a7.17,7.17,0,0,1,2.51-4.32,8.42,8.42,0,0,1,5.67-1.75q4.62,0,5.77,1.78t.3,6.2h21.43l.2-.39q2.45-10.81-4.45-17.68t-19.89-6.86m-11.14,47.43q5.87,1.37,7.71,3.36a5.57,5.57,0,0,1,1.19,5.2,7.27,7.27,0,0,1-2.93,4.51c-1.57,1.13-3.84,1.7-6.83,1.7-3.52,0-6-.59-7.29-1.79s-1.77-3.36-1.29-6.52h-18.46l4.94-24.69c0,4.4,1.22,7.87,3.7,10.38q5.26,5.34,19.26,7.85" fill="#575756"/><polygon points="2023.4 61.04 2015.42 100.68 2015.02 100.68 2001.17 61.04 1979.14 61.04 1963.92 137.88 1964.53 137.88 1985.8 137.88 1995.42 89.6 1995.39 101.83 2008.03 137.88 2030.06 137.88 2045.43 61.04 2023.4 61.04" fill="#575756"/><polygon points="2088.78 61.04 2063.6 120.53 2061.93 61.04 2048.73 61.04 2043.02 89.6 2047.55 137.88 2072.35 137.88 2111.66 61.04 2088.78 61.04" fill="#575756"/><polygon points="2114.64 61.04 2100.08 89.6 2089.6 137.88 2111.7 137.88 2127.07 61.04 2114.64 61.04" fill="#575756"/><polygon points="1970.1 78.19 1973.53 61.04 1919.8 61.04 1916.37 78.19 1916.38 78.19 1914.09 89.6 1904.45 137.89 1960.55 137.89 1963.98 120.73 1929.8 120.73 1932.63 106.75 1958.89 106.75 1962.26 89.6 1936.06 89.6 1938.55 78.19 1970.1 78.19" fill="#575756"/><path d="M2186.16,107.52q-3,15-13.62,23.38t-25.43,8.41q-13.53,0-21.4-9t-5.12-22.76l3.24-16q2.9-14.83,13.55-23.15T2162.87,60q13.53,0,21.38,8.9t5.14,22.56ZM2167.43,91.4q1.18-6.25-.86-10.34T2159.51,77q-4.87,0-8.74,4.31a20.88,20.88,0,0,0-5,10.11l-3.23,16.08q-1.32,6.31.69,10.5t7.29,4.18q4.62,0,8.54-4.44a22,22,0,0,0,5.12-10.24Z" fill="#575756"/><path d="M2186.19,107.53q-3,15-13.62,23.38t-25.43,8.41q-13.53,0-21.41-9t-5.11-22.75l3.24-16q2.89-14.85,13.55-23.16T2162.9,60q13.53,0,21.37,8.91t5.15,22.56Zm-18.73-16.12q1.18-6.25-.86-10.34c-1.37-2.72-3.72-4.09-7.06-4.09s-6.17,1.44-8.74,4.32a20.88,20.88,0,0,0-5,10.11l-3.23,16.07q-1.32,6.33.69,10.51c1.34,2.78,3.77,4.18,7.29,4.18q4.62,0,8.54-4.45a21.74,21.74,0,0,0,5.11-10.24Z" fill="#575756"/></svg>