<svg xmlns="http://www.w3.org/2000/svg" width="500" height="183.2" viewBox="0 0 500 183.2"><path d="M22.66,68.73H49.55V82.38H8.13V17.86H22.66Z" fill="#fff"/><path d="M79.59,83.53a25.32,25.32,0,0,1-18.38-7.17,23.83,23.83,0,0,1-7.38-17.81,23.82,23.82,0,0,1,7.38-17.81,25.32,25.32,0,0,1,18.38-7.17,26.78,26.78,0,0,1,13.16,3.26,24,24,0,0,1,9.22,9,24.85,24.85,0,0,1,3.33,12.72A24.79,24.79,0,0,1,102,71.26a24,24,0,0,1-9.22,9A26.68,26.68,0,0,1,79.59,83.53ZM71.23,67A12,12,0,0,0,88,67a11.48,11.48,0,0,0,3.33-8.4A11.52,11.52,0,0,0,88,50.14a12.05,12.05,0,0,0-16.72,0,11.52,11.52,0,0,0-3.33,8.41A11.48,11.48,0,0,0,71.23,67Z" fill="#fff"/><path d="M143.86,81.93A18.93,18.93,0,0,1,156,85.74a17.16,17.16,0,0,1,6.17,10.66l-14,3.84A5.24,5.24,0,0,0,146,96.52a7.63,7.63,0,0,0-4.73-1.39H126.37q-6.93,0-11.11-3.66a12.15,12.15,0,0,1-4.18-9.64,15.31,15.31,0,0,1,1.75-7.19,12.89,12.89,0,0,1,4.78-5.18,19.67,19.67,0,0,1-6.26-14.84,19.75,19.75,0,0,1,6.42-15q6.41-6,16.09-6a26.09,26.09,0,0,1,10,2,10.48,10.48,0,0,1,4.46-6.14,14.59,14.59,0,0,1,8.28-2.26h4v12.6h-3.38a5.3,5.3,0,0,0-2.92.8,3.42,3.42,0,0,0-1.55,2.12,20.72,20.72,0,0,1,3.74,12A19.67,19.67,0,0,1,150,69.67a22.91,22.91,0,0,1-16.17,6,25.41,25.41,0,0,1-7-1,4.17,4.17,0,0,0-2.15,3.66A3.23,3.23,0,0,0,125.91,81a4.77,4.77,0,0,0,3.11,1Zm-10-35.44a8.41,8.41,0,0,0-6.09,2.31,8.21,8.21,0,0,0,0,11.62,8.42,8.42,0,0,0,6.07,2.33A8.63,8.63,0,0,0,140,60.42a8,8,0,0,0,0-11.6A8.63,8.63,0,0,0,133.86,46.49Z" fill="#fff"/><path d="M165.53,29.82,174.9,16H192L179.88,29.82Zm1,52.56V34.71h13.65V82.38Z" fill="#fff"/><path d="M208.08,83.53a31.23,31.23,0,0,1-20.46-7.22L194,67.5a20.59,20.59,0,0,0,13.66,5.16,12.74,12.74,0,0,0,5.5-1,3.1,3.1,0,0,0,2.08-2.83,2.68,2.68,0,0,0-.57-1.69,4.81,4.81,0,0,0-1.94-1.3,21.64,21.64,0,0,0-2.53-.89q-1.17-.31-3.45-.87c-1.13-.24-2-.44-2.63-.59s-1.5-.39-2.63-.71a28.13,28.13,0,0,1-2.69-.89c-.67-.27-1.49-.65-2.46-1.12A10.75,10.75,0,0,1,194,59.3,22.89,22.89,0,0,1,192,57.45a8.56,8.56,0,0,1-1.57-2.3,16.79,16.79,0,0,1-.94-2.81,15,15,0,0,1-.38-3.43,13.58,13.58,0,0,1,2.71-8.52A15.69,15.69,0,0,1,199,35.21a28.29,28.29,0,0,1,10-1.64,31.25,31.25,0,0,1,19,6.25l-6.39,8.82q-6.17-4.2-12.15-4.2a11.59,11.59,0,0,0-4.77.84,2.74,2.74,0,0,0-1.85,2.58,2.36,2.36,0,0,0,.46,1.42,4.18,4.18,0,0,0,1.09,1,9.6,9.6,0,0,0,1.9.84,20.58,20.58,0,0,0,2.26.66l2.78.64,2.92.67c.74.16,1.72.42,2.95.77a18.76,18.76,0,0,1,3,1.1c.77.38,1.66.84,2.67,1.39a9.48,9.48,0,0,1,2.46,1.87,19.42,19.42,0,0,1,1.85,2.38,9.19,9.19,0,0,1,1.3,3.06,16.07,16.07,0,0,1,.41,3.79A13.7,13.7,0,0,1,223,79.3Q217.13,83.53,208.08,83.53Z" fill="#fff"/><path d="M266.25,47.13H254V64.62q0,5.72,6,5.71a13.76,13.76,0,0,0,6.25-1.69V81.47a19.94,19.94,0,0,1-9.13,2.06q-8.4,0-12.58-4.5t-4.18-12.17V47.13h-7.21V34.71h7.21V22.88H254V34.71h12.24Z" fill="#fff"/><path d="M281.94,28.59a8.23,8.23,0,0,1-8.4-8.4A8,8,0,0,1,276,14.25a8.24,8.24,0,0,1,6-2.38,8.43,8.43,0,0,1,6.11,2.38,8,8,0,0,1,2.44,5.94,8.1,8.1,0,0,1-2.44,6A8.36,8.36,0,0,1,281.94,28.59Zm-6.8,53.79V34.71h13.65V82.38Z" fill="#fff"/><path d="M322.38,83.53A25.3,25.3,0,0,1,304,76.36a23.83,23.83,0,0,1-7.38-17.81A23.82,23.82,0,0,1,304,40.74a25.3,25.3,0,0,1,18.37-7.17,26.4,26.4,0,0,1,12.93,3.17,23.8,23.8,0,0,1,9.13,8.7l-11.87,7.22a11.33,11.33,0,0,0-4.2-4.3,11.57,11.57,0,0,0-6-1.59A11.25,11.25,0,0,0,314,50.14a11.52,11.52,0,0,0-3.33,8.41A11.48,11.48,0,0,0,314,67a11.26,11.26,0,0,0,8.35,3.38,11.48,11.48,0,0,0,6-1.6,11.3,11.3,0,0,0,4.2-4.29l11.87,7.17a23.61,23.61,0,0,1-9.13,8.74A26.41,26.41,0,0,1,322.38,83.53Z" fill="#fff"/><path d="M385.46,34.71h13.65V82.38H385.46V77.63A19.35,19.35,0,0,1,371,83.53a21.42,21.42,0,0,1-16.42-7.17Q348,69.19,348,58.55t6.6-17.81A21.42,21.42,0,0,1,371,33.57a19.34,19.34,0,0,1,14.43,5.89ZM373.77,70.33A11.28,11.28,0,0,0,382.13,67a11.48,11.48,0,0,0,3.33-8.4,11.52,11.52,0,0,0-3.33-8.41,11.28,11.28,0,0,0-8.36-3.37,11.13,11.13,0,0,0-8.29,3.37,11.55,11.55,0,0,0-3.31,8.41,11.51,11.51,0,0,0,3.31,8.4A11.14,11.14,0,0,0,373.77,70.33Z" fill="#fff"/><path d="M426.91,83.53a31.25,31.25,0,0,1-20.46-7.22l6.35-8.81a20.54,20.54,0,0,0,13.65,5.16,12.76,12.76,0,0,0,5.51-1A3.1,3.1,0,0,0,434,68.82a2.62,2.62,0,0,0-.57-1.69,4.74,4.74,0,0,0-1.94-1.3,21,21,0,0,0-2.53-.89q-1.17-.31-3.45-.87c-1.12-.24-2-.44-2.63-.59s-1.5-.39-2.62-.71a26.34,26.34,0,0,1-2.69-.89c-.67-.27-1.5-.65-2.47-1.12a11,11,0,0,1-2.35-1.46,24.54,24.54,0,0,1-1.92-1.85,8.6,8.6,0,0,1-1.58-2.3,16.82,16.82,0,0,1-.93-2.81,14.47,14.47,0,0,1-.39-3.43,13.53,13.53,0,0,1,2.72-8.52,15.66,15.66,0,0,1,7.12-5.18,28.31,28.31,0,0,1,10-1.64,31.24,31.24,0,0,1,19,6.25l-6.39,8.82q-6.17-4.2-12.14-4.2a11.67,11.67,0,0,0-4.78.84,2.73,2.73,0,0,0-1.84,2.58,2.35,2.35,0,0,0,.45,1.42,4.22,4.22,0,0,0,1.1,1,9.2,9.2,0,0,0,1.89.84,21.23,21.23,0,0,0,2.26.66l2.79.64,2.92.67c.73.16,1.71.42,2.94.77a18.41,18.41,0,0,1,3,1.1c.77.38,1.67.84,2.67,1.39a9.54,9.54,0,0,1,2.47,1.87A18.45,18.45,0,0,1,446,60.65a9.2,9.2,0,0,1,1.31,3.06,16.62,16.62,0,0,1,.41,3.79,13.71,13.71,0,0,1-5.87,11.8Q436,83.53,426.91,83.53Z" fill="#fff"/><path d="M15.79,149.25H45v6.88H8.45V100.94H44.62v6.87H15.79v17.11H42v6.87H15.79Z" fill="#fff"/><path d="M72.14,157.11a23,23,0,0,1-16.56-6.41l3.82-5A16.91,16.91,0,0,0,72,150.86a13.39,13.39,0,0,0,6.8-1.55,4.72,4.72,0,0,0,2.65-4.24,3.84,3.84,0,0,0-.57-2,5.52,5.52,0,0,0-1.32-1.5,8.92,8.92,0,0,0-2.27-1.15,24.57,24.57,0,0,0-2.62-.86c-.74-.2-1.78-.46-3.14-.8l-3-.76c-.73-.2-1.67-.51-2.83-.92a20.55,20.55,0,0,1-2.81-1.21,20.26,20.26,0,0,1-2.35-1.54,8.67,8.67,0,0,1-2-2,10.4,10.4,0,0,1-1.21-2.57,10.89,10.89,0,0,1-.48-3.31,10.32,10.32,0,0,1,2.18-6.6,12.74,12.74,0,0,1,5.66-4.08,22,22,0,0,1,7.78-1.31,21.44,21.44,0,0,1,15,5.59l-3.87,5a15.19,15.19,0,0,0-11-4.38A12.27,12.27,0,0,0,66.43,122,4.36,4.36,0,0,0,64,126a3.8,3.8,0,0,0,.59,2.08,5.83,5.83,0,0,0,1.35,1.51,8.86,8.86,0,0,0,2.32,1.15c1,.38,1.92.66,2.64.86s1.77.46,3.18.8c1.23.29,2.2.53,3,.72s1.68.49,2.83.88a20.16,20.16,0,0,1,2.79,1.15A17.73,17.73,0,0,1,85,136.64a8.3,8.3,0,0,1,2,2,10.14,10.14,0,0,1,1.19,2.56,10.36,10.36,0,0,1,.49,3.26,10.86,10.86,0,0,1-4.65,9.28Q79.28,157.1,72.14,157.11Z" fill="#fff"/><path d="M124.09,114.37a19.39,19.39,0,0,1,14.61,6.14,22.72,22.72,0,0,1,0,30.46,19.39,19.39,0,0,1-14.61,6.14,18.91,18.91,0,0,1-9.1-2.21,18.59,18.59,0,0,1-6.72-6.11v22.53H101.4v-56h6.87v7.34a18.59,18.59,0,0,1,6.72-6.11A18.91,18.91,0,0,1,124.09,114.37Zm-1.29,36.09a14.15,14.15,0,0,0,10.47-4.21,15.3,15.3,0,0,0,0-21A14.16,14.16,0,0,0,122.8,121a14,14,0,0,0-10.39,4.22,15.41,15.41,0,0,0,0,21A14,14,0,0,0,122.8,150.46Z" fill="#fff"/><path d="M197.87,135.74c0,.39-.07,1.4-.19,3H162.57a14.33,14.33,0,0,0,5.13,8.69,15.37,15.37,0,0,0,10,3.3,17.56,17.56,0,0,0,8-1.86,15.33,15.33,0,0,0,5.74-4.78l4.72,4.06a21.48,21.48,0,0,1-8,6.52,24.29,24.29,0,0,1-10.76,2.39,22,22,0,0,1-15.94-6.18,20.48,20.48,0,0,1-6.37-15.35,21.33,21.33,0,0,1,2.79-10.8,20.21,20.21,0,0,1,7.72-7.63,21.88,21.88,0,0,1,10.93-2.78,21.63,21.63,0,0,1,10.87,2.78,20,20,0,0,1,7.65,7.67A21.78,21.78,0,0,1,197.87,135.74Zm-21.36-15a13.69,13.69,0,0,0-9.18,3.3,14.32,14.32,0,0,0-4.85,8.54h28.09a14.23,14.23,0,0,0-4.84-8.58A13.88,13.88,0,0,0,176.51,120.7Z" fill="#fff"/><path d="M229.86,157.11a22.41,22.41,0,0,1-11.1-2.8,20.3,20.3,0,0,1-7.83-7.69,22.33,22.33,0,0,1,0-21.76,20.3,20.3,0,0,1,7.83-7.69,22.3,22.3,0,0,1,11.1-2.8,21.94,21.94,0,0,1,10.93,2.76,20.13,20.13,0,0,1,7.7,7.48l-6,3.59a13.81,13.81,0,0,0-5.23-5.25,14.62,14.62,0,0,0-7.42-1.94,14.14,14.14,0,0,0-10.47,4.22,15.3,15.3,0,0,0,0,21,14.13,14.13,0,0,0,10.47,4.21,14.43,14.43,0,0,0,7.42-2,13.93,13.93,0,0,0,5.23-5.27l6,3.59a20,20,0,0,1-7.71,7.52A22,22,0,0,1,229.86,157.11Z" fill="#fff"/><path d="M263.83,107.19a4.55,4.55,0,0,1-3.32-1.31,4.68,4.68,0,0,1,0-6.54,4.58,4.58,0,0,1,3.32-1.29,4.39,4.39,0,0,1,3.24,1.29,4.76,4.76,0,0,1,0,6.54A4.39,4.39,0,0,1,263.83,107.19Zm-3.44,48.94V115.35h6.88v40.78Z" fill="#fff"/><path d="M316.51,115.35h6.88v40.78h-6.88v-7.34a18.46,18.46,0,0,1-6.73,6.11,19,19,0,0,1-9.12,2.21,20,20,0,0,1-10.43-2.8,19.52,19.52,0,0,1-7.33-7.69,23.82,23.82,0,0,1,0-21.76,19.52,19.52,0,0,1,7.33-7.69,19.93,19.93,0,0,1,10.43-2.8,19,19,0,0,1,9.12,2.21,18.46,18.46,0,0,1,6.73,6.11Zm-14.57,35.11a14,14,0,0,0,10.41-4.21,15.36,15.36,0,0,0,0-21,15,15,0,0,0-20.87,0,15.3,15.3,0,0,0,0,21A14.11,14.11,0,0,0,301.94,150.46Z" fill="#fff"/><path d="M340.85,156.13V98.52h6.87v57.61Z" fill="#fff"/><path d="M403.53,135.74c0,.39-.07,1.4-.2,3H368.22a14.3,14.3,0,0,0,5.14,8.69,15.32,15.32,0,0,0,10,3.3,17.56,17.56,0,0,0,8.05-1.86,15.33,15.33,0,0,0,5.74-4.78l4.73,4.06a21.52,21.52,0,0,1-8,6.52,24.26,24.26,0,0,1-10.76,2.39,21.94,21.94,0,0,1-15.93-6.18,20.49,20.49,0,0,1-6.38-15.35,21.34,21.34,0,0,1,2.8-10.8,20.07,20.07,0,0,1,7.72-7.63,21.83,21.83,0,0,1,10.93-2.78,21.59,21.59,0,0,1,10.86,2.78,20.09,20.09,0,0,1,7.66,7.67A21.89,21.89,0,0,1,403.53,135.74Zm-21.37-15A13.69,13.69,0,0,0,373,124a14.31,14.31,0,0,0-4.84,8.54h28.09a14.24,14.24,0,0,0-4.85-8.58A13.86,13.86,0,0,0,382.16,120.7Z" fill="#fff"/><path d="M427.44,157.11a23,23,0,0,1-16.56-6.41l3.83-5a16.9,16.9,0,0,0,12.61,5.12,13.39,13.39,0,0,0,6.8-1.55,4.72,4.72,0,0,0,2.65-4.24,3.83,3.83,0,0,0-.56-2,5.55,5.55,0,0,0-1.33-1.5,8.59,8.59,0,0,0-2.27-1.15,24.48,24.48,0,0,0-2.61-.86c-.74-.2-1.79-.46-3.14-.8s-2.25-.57-3-.76-1.68-.51-2.84-.92a21.7,21.7,0,0,1-2.81-1.21,21.11,21.11,0,0,1-2.34-1.54,8.73,8.73,0,0,1-2-2,10.39,10.39,0,0,1-1.2-2.57,10.59,10.59,0,0,1-.49-3.31,10.33,10.33,0,0,1,2.19-6.6,12.69,12.69,0,0,1,5.66-4.08,22,22,0,0,1,7.77-1.31,21.43,21.43,0,0,1,15,5.59l-3.86,5a15.19,15.19,0,0,0-11-4.38,12.27,12.27,0,0,0-6.17,1.41,4.36,4.36,0,0,0-2.46,4,3.8,3.8,0,0,0,.59,2.08,5.8,5.8,0,0,0,1.34,1.51,9,9,0,0,0,2.32,1.15c1.05.38,1.93.66,2.64.86s1.78.46,3.18.8l3,.72c.74.2,1.68.49,2.83.88a21.26,21.26,0,0,1,2.79,1.15,17.73,17.73,0,0,1,2.33,1.51,8.06,8.06,0,0,1,1.94,2,10.14,10.14,0,0,1,1.2,2.56,10.36,10.36,0,0,1,.49,3.26,10.86,10.86,0,0,1-4.65,9.28Q434.59,157.1,427.44,157.11Z" fill="#fff"/><path d="M449.93,15.12a2.24,2.24,0,0,0-.89,4.3h0a27.52,27.52,0,0,1,18.89,32.71h0a2.24,2.24,0,0,0,4.16,1.38L491.42,20a3.27,3.27,0,0,0-2.83-4.91Z" fill="#fff"/></svg>