<svg xmlns="http://www.w3.org/2000/svg" width="500" height="183.2" viewBox="0 0 500 183.2"><path d="M467.63,83.88a5,5,0,0,0-1.05-4.63q-1.65-1.77-6.87-3-12.46-2.22-17.15-7t-2.7-14.63a23.52,23.52,0,0,1,9.8-14.85q8-5.76,20-5.76,11.56,0,17.71,6.11t4,15.74l-.18.35H472q.76-3.93-.26-5.52c-.69-1.06-2.4-1.58-5.14-1.58a7.5,7.5,0,0,0-5.05,1.55,6.44,6.44,0,0,0-2.24,3.85c-.43,2.11-.13,3.74.91,4.87s3.64,2.15,7.79,3.05q11.32,2.11,16.17,6.93t3,14.27A23.34,23.34,0,0,1,476.77,99q-8.49,5.64-20.82,5.64-13.15,0-19.67-6.38t-4.23-15.94l.11-.35h19.15q-.65,4.21,1.14,5.81t6.49,1.59A10.27,10.27,0,0,0,465,87.89a6.4,6.4,0,0,0,2.61-4" fill="#fff"/><polygon points="79.17 35.11 57.79 81.06 57.44 81 54.62 35.11 30.65 35.11 16.96 103.56 36.58 103.56 42.93 71.77 43.28 71.77 46.63 103.56 59.67 103.56 77.06 69.07 77.41 69.19 70.54 103.56 90.1 103.56 103.79 35.11 79.17 35.11" fill="#fff"/><path d="M153.77,34.12q-12,0-20,5.75a24.13,24.13,0,0,0-8.4,10.27l3-15H108.71L95,103.55H114.7l2.07-10.32a15.85,15.85,0,0,0,3.63,5.18q6.52,6.38,19.68,6.38,12.33,0,20.82-5.64a23.32,23.32,0,0,0,10.43-15.39q1.88-9.47-3-14.28t-16.18-6.93q-6.23-1.35-7.79-3.06c-1-1.13-1.34-2.76-.91-4.87a6.44,6.44,0,0,1,2.24-3.85,7.52,7.52,0,0,1,5.05-1.56q4.11,0,5.14,1.59t.26,5.52h19.1l.17-.35q2.17-9.63-4-15.74t-17.71-6.11m-9.93,42.24q5.22,1.22,6.87,3A5,5,0,0,1,151.77,84a6.46,6.46,0,0,1-2.62,4,10.25,10.25,0,0,1-6.08,1.52q-4.69,0-6.49-1.59c-1.19-1.07-1.58-3-1.14-5.82H119l4.4-22q0,5.9,3.29,9.25,4.69,4.75,17.16,7" fill="#fff"/><polygon points="293.54 35.11 286.43 70.42 286.08 70.42 273.74 35.11 254.12 35.11 240.56 103.56 241.1 103.56 260.05 103.56 268.63 60.55 268.6 71.44 279.85 103.56 299.48 103.56 313.16 35.11 293.54 35.11" fill="#fff"/><polygon points="351.77 35.11 329.35 88.1 327.86 35.11 316.11 35.11 311.02 60.55 315.05 103.56 337.14 103.56 372.15 35.11 351.77 35.11" fill="#fff"/><polygon points="374.8 35.11 361.84 60.55 352.51 103.56 372.19 103.56 385.88 35.11 374.8 35.11" fill="#fff"/><polygon points="11.62 146.42 21.54 146.42 21.05 148.84 8.13 148.84 12.66 126.17 15.67 126.17 11.62 146.42" fill="#fff"/><path d="M50.87,139.68a12.62,12.62,0,0,1-3.58,7,9.25,9.25,0,0,1-6.55,2.51,6.5,6.5,0,0,1-5.55-2.86,8.43,8.43,0,0,1-1.26-6.91l.81-4a12.93,12.93,0,0,1,3.48-7,8.71,8.71,0,0,1,6.32-2.52,6.85,6.85,0,0,1,5.77,2.88,8.29,8.29,0,0,1,1.37,6.91Zm-2.19-4.07a6.86,6.86,0,0,0-.66-5.26,4.45,4.45,0,0,0-4-2,5.18,5.18,0,0,0-4,1.93,10.52,10.52,0,0,0-2.33,5l-.82,4.08a7.16,7.16,0,0,0,.56,5.28,4.11,4.11,0,0,0,3.75,2,5.6,5.6,0,0,0,4.2-1.92,10.27,10.27,0,0,0,2.43-5Z" fill="#fff"/><path d="M79.74,145.83a9.05,9.05,0,0,1-3.08,2.29,11,11,0,0,1-5,1A6.8,6.8,0,0,1,66,146.52a7.83,7.83,0,0,1-1.26-6.68l.93-4.67a11.93,11.93,0,0,1,3.63-6.86,9.43,9.43,0,0,1,6.49-2.46,5.91,5.91,0,0,1,6.47,6.83l-.05.09H79.33a5.29,5.29,0,0,0-.84-3.28,3.7,3.7,0,0,0-3.19-1.23,5.71,5.71,0,0,0-4.11,2,9.47,9.47,0,0,0-2.5,4.9l-.94,4.7a6.61,6.61,0,0,0,.58,5.06,4.22,4.22,0,0,0,3.78,1.86,7.77,7.77,0,0,0,2.9-.52,5.42,5.42,0,0,0,1.87-1.16l1-5.15H73.42l.48-2.41h7.49Z" fill="#fff"/><polygon points="97.55 148.84 94.53 148.84 99.06 126.17 102.08 126.17 97.55 148.84" fill="#fff"/><path d="M125.63,143.63a3.22,3.22,0,0,0-.53-2.83,8.63,8.63,0,0,0-3.53-2,10.41,10.41,0,0,1-4.67-2.71q-1.4-1.63-.78-4.66a6.24,6.24,0,0,1,2.6-4.14,8.77,8.77,0,0,1,5.07-1.42,7,7,0,0,1,5.18,1.86,5.21,5.21,0,0,1,1.14,5.08l0,.07h-2.9a3.77,3.77,0,0,0-.64-3.34,4,4,0,0,0-3.23-1.26,4.39,4.39,0,0,0-2.73.9,3.58,3.58,0,0,0-1.46,2.21,3.26,3.26,0,0,0,.41,2.85,9.62,9.62,0,0,0,3.61,2,11.13,11.13,0,0,1,4.7,2.79q1.38,1.59.79,4.59A6.17,6.17,0,0,1,126,147.8a9.54,9.54,0,0,1-5.25,1.36,9,9,0,0,1-5.6-1.69q-2.25-1.68-1.45-5.22l0-.09h2.88c-.36,1.71-.06,2.89.89,3.57a6.26,6.26,0,0,0,3.73,1,4.94,4.94,0,0,0,2.86-.89,3.56,3.56,0,0,0,1.58-2.23" fill="#fff"/><polygon points="159.1 128.59 152.39 128.59 148.34 148.84 145.34 148.84 149.39 128.59 142.7 128.59 143.18 126.17 159.59 126.17 159.1 128.59" fill="#fff"/><polygon points="170.92 148.84 167.9 148.84 172.43 126.17 175.45 126.17 170.92 148.84" fill="#fff"/><path d="M203,141.88l0,.09a11,11,0,0,1-3.06,5.26,7.93,7.93,0,0,1-5.55,1.93,6.49,6.49,0,0,1-5.49-2.85,8.41,8.41,0,0,1-1.26-6.92l.81-4a13.42,13.42,0,0,1,3.35-7,8.23,8.23,0,0,1,6.08-2.49,6.77,6.77,0,0,1,5.29,2.14,6.55,6.55,0,0,1,1.53,5.5l0,.08h-2.91a5.87,5.87,0,0,0-.89-3.89,3.86,3.86,0,0,0-3.33-1.42,4.86,4.86,0,0,0-3.81,2,11.14,11.14,0,0,0-2.26,5l-.83,4.08a7.64,7.64,0,0,0,.51,5.31,3.83,3.83,0,0,0,3.57,2.06,4.56,4.56,0,0,0,3.31-1.18,9.2,9.2,0,0,0,2.06-3.69Z" fill="#fff"/><path d="M227.92,143h-8.69l-3.15,5.84H213l12.71-22.67h2.55l3.5,22.67h-3.07Zm-7.28-2.57h6.92l-1.37-10.07-.09,0Z" fill="#fff"/><path d="M277.63,143h-8.69l-3.16,5.84h-3l12.7-22.67H278l3.51,22.67h-3.07Zm-7.29-2.57h6.93l-1.37-10.07-.1,0Z" fill="#fff"/><polygon points="321.78 126.17 324.68 144.57 324.76 144.59 335.01 126.17 338.84 126.17 334.31 148.84 331.31 148.84 333.1 139.87 335.18 130.95 335.11 130.92 324.85 148.84 322.86 148.84 319.77 130.97 319.68 130.97 318.2 139.87 316.41 148.84 313.41 148.84 317.94 126.17 321.78 126.17" fill="#fff"/><polygon points="364.8 138.33 355.22 138.33 353.6 146.42 364.66 146.42 364.18 148.83 350.11 148.83 354.64 126.17 368.54 126.17 368.05 128.59 357.16 128.59 355.7 135.92 365.29 135.92 364.8 138.33" fill="#fff"/><path d="M377.74,148.84l4.52-22.67h5.95a7.69,7.69,0,0,1,6.28,2.87,8.14,8.14,0,0,1,1.48,7.08l-.6,3.08a13,13,0,0,1-3.64,7.16,9.82,9.82,0,0,1-6.9,2.48Zm7-20.25-3.56,17.83h4.09a5.93,5.93,0,0,0,4.53-2,10.4,10.4,0,0,0,2.52-5.23l.63-3.12a6.79,6.79,0,0,0-.8-5.42,5.08,5.08,0,0,0-4.46-2.06Z" fill="#fff"/><polygon points="411.03 148.84 408.01 148.84 412.54 126.17 415.56 126.17 411.03 148.84" fill="#fff"/><path d="M426.9,148.84l4.52-22.67h5.95a7.68,7.68,0,0,1,6.28,2.87,8.14,8.14,0,0,1,1.48,7.08l-.6,3.08a13,13,0,0,1-3.64,7.16,9.82,9.82,0,0,1-6.9,2.48ZM434,128.59l-3.57,17.83h4.09a5.93,5.93,0,0,0,4.53-2,10.4,10.4,0,0,0,2.52-5.23l.63-3.12a6.79,6.79,0,0,0-.8-5.42,5.08,5.08,0,0,0-4.46-2.06Z" fill="#fff"/><path d="M468.94,143h-8.68l-3.16,5.84h-3.05l12.7-22.67h2.55l3.5,22.67h-3.06Zm-7.28-2.57h6.93l-1.38-10.07-.09,0Z" fill="#fff"/><polygon points="246.07 50.39 249.12 35.11 201.26 35.11 198.22 50.39 198.23 50.39 196.19 60.55 187.6 103.56 237.56 103.56 240.61 88.28 210.18 88.28 212.7 75.83 236.09 75.83 239.08 60.55 215.75 60.55 217.97 50.39 246.07 50.39" fill="#fff"/><path d="M438.5,76.51q-2.64,13.33-12.13,20.83t-22.64,7.49q-12,0-19.07-8t-4.55-20.27L383,62.23Q385.57,49,395.06,41.62t22.71-7.41q12,0,19,7.93t4.58,20.09ZM421.82,62.16q1.06-5.58-.76-9.21a6.45,6.45,0,0,0-6.29-3.64A10.24,10.24,0,0,0,407,53.15a18.51,18.51,0,0,0-4.44,9l-2.88,14.31c-.78,3.75-.57,6.88.62,9.36s3.36,3.72,6.49,3.72q4.11,0,7.61-4a19.49,19.49,0,0,0,4.55-9.13Z" fill="#fff"/><path d="M438.53,76.52q-2.64,13.33-12.13,20.82t-22.65,7.49q-12,0-19.06-8t-4.55-20.26L383,62.24q2.6-13.22,12.08-20.62t22.7-7.4q12,0,19,7.93t4.58,20.09ZM421.85,62.16c.7-3.72.45-6.78-.77-9.21a6.44,6.44,0,0,0-6.28-3.63A10.26,10.26,0,0,0,407,53.16a18.47,18.47,0,0,0-4.43,9L399.7,76.48q-1.18,5.63.61,9.35c1.2,2.49,3.36,3.73,6.5,3.73q4.11,0,7.61-4A19.5,19.5,0,0,0,419,76.48Z" fill="#fff"/></svg>