<?xml version="1.0" encoding="utf-8"?>
<!-- Generator: Adobe Illustrator 24.1.3, SVG Export Plug-In . SVG Version: 6.00 Build 0)  -->
<svg version="1.1" id="Capa_1" xmlns="http://www.w3.org/2000/svg" xmlns:xlink="http://www.w3.org/1999/xlink" x="0px" y="0px"
	 viewBox="0 0 774.6 1666.7" style="enable-background:new 0 0 774.6 1666.7;" xml:space="preserve">
<style type="text/css">
	.st0{fill:#FFFFFF;}
	.st1{fill:#262626;}
	.st2{fill:#F09E07;}
</style>
<path class="st0" d="M173.2,505.6c2-0.2,4-0.3,5.9-0.3l0.2,0c2-0.1,4-0.2,6.1-0.3c1.1-0.1,2-0.2,2.9-0.3c-4-4.8-7.3-10.1-9.9-15.7
	c-2.8-6.3-4.4-13-5.9-19.5c-0.7-2.9-1.4-5.8-2.2-8.6c-3-10.9-7.2-18-13-22.4c-2.6-1.8-5.4-3.4-8.2-4.7c-4.3-2.1-8.8-4.3-12.4-8.1
	c-1.5-1.6-2.9-3.3-4.1-5.1c-1.7-2.4-3.3-4.6-5.4-5.9c-1.5-0.9-3.2-1.6-4.9-2.1c-3.2-1.2-6.9-2.5-9.4-5.7l-0.8-1
	c-0.2-0.3-0.7-0.9-1.1-1.4c-0.2,0.2-0.4,0.4-0.6,0.6c-4.2,3.6-9,0.9-12.2-1c-1.3-0.8-3.8-2.2-4.5-1.8c-0.2,0.2-0.5,0.4-0.7,0.6
	c-0.7,0.7-1.4,1.3-2.3,1.8c-2.3,1.2-5.1,1.1-7.2-0.4c-3.1-2.1-5-5.7-4.9-9.5c0.2-1.9,0.5-3.7,1-5.6c0.5-1.6,0.8-3.3,0.8-5
	c-0.1-0.6-0.2-1.2-0.4-1.8c-0.3-1.1-0.5-2.2-0.7-3.3c-0.1-2.3,0.2-4.6,0.8-6.8c0.2-0.6,0.3-1.3,0.4-1.9c1.4-8.2-2.7-16.3-10.1-20.1
	l-0.9-0.4c-2-0.9-4.4-2-6-4.4c-0.4-0.7-0.8-1.5-1.1-2.3c-0.1-0.3-0.3-0.7-0.5-1c-1.1,0.1-2.2,0.4-3.2,0.8c-0.9,0.3-1.7,0.5-2.6,0.7
	c-0.4,0.1-0.8,0.2-1.2,0.2c0,0.1,0,0.2,0,0.4c0.4,3.3,1.1,6.6,1.8,9.7c0.3,1.6,0.7,3.3,1,4.9c0.9,5.4,0,11-2.8,15.7
	c-2.1,3.6-4.7,8.1-5.8,12.3c-1,3.7,0.2,7.5,1.6,11c0.4,1,0.9,2,1.4,3c1.4,2.4,2.2,5,2.6,7.8c0,2.6-0.6,5.2-1.7,7.6
	c-0.5,1.2-1,2.5-1.3,3.8c-0.1,1.1,0.1,2.1,0.6,3.1c0.7,1.3,1,2.7,1.1,4.2c0.2,5.2-2.9,6.7-5.8,7.6c-2.5,0.8-4.3,2.5-5.9,5.5
	c-1.4,2.6-1.5,5-1.6,7.7c0,1.5-0.2,3-0.3,4.5c-0.2,1.4-0.6,2.7-1,4c-0.3,1-0.6,2-0.8,3c0,0.3-0.1,0.5-0.1,0.8
	c-0.1,1.1-0.4,2.1-0.9,3.1c-0.4,0.7-1,1.3-1.6,1.7l-0.3,0.3c0.2,0.2,0.4,0.4,0.6,0.6c1,0.8,1.7,2,2,3.3c0.6,3.9-2.6,4.8-3.8,5.1
	c-0.3,0.1-0.7,0.2-1,0.3c-5.4,2.7-5.6,9.5-5.4,12.2c0,1.1,0,2.3-0.2,3.4c-0.2,1.8-0.4,4.8,0.3,5.7c0.5,0.6,1.1,1.1,1.8,1.5
	c2.1,1.2,3.6,3.3,3.9,5.7c0.1,1,0.2,2.1,0.1,3.1c-0.1,2.2,0,2.7,0.7,3.1c0.8,0.4,1.7,0.7,2.6,0.9c2.4,0.7,6,1.6,5.6,7.1
	c-0.2,1.6-0.7,3.2-1.3,4.7c-0.7,1.8-1.4,3.5-1,4.7c0.7,2.3,2.6,4.8,4.3,7.1c0.9,1.2,1.8,2.3,2.5,3.5c1.5,2.4,2.7,4.9,3.5,7.6l0.1,0
	c2.4-0.2,2.9-0.6,3-0.7l0,0c0.2-0.5,0.4-1.1,0.5-1.7c0.2-2.2,1.2-4.2,2.9-5.7c0.7-0.6,1.6-0.9,2.6-0.8c2,0.1,3.7,1.4,4.2,3.3
	c0.2-0.4,0.4-0.8,0.5-1.1c1-2,2.8-3.5,5-4.2c-0.1-2.5-0.4-4.9-0.8-7.3c-0.2-1.3,0.3-2.6,1.3-3.5c1.9-1.6,4.3-2.5,6.7-2.8
	c0-0.1,0-0.3-0.1-0.4c-0.4-2,0.8-3.9,2.8-4.3c0.7-0.1,1.3-0.1,2,0.1c0.7,0,1.3-0.1,1.9-0.3c1.9-0.5,4.8-1.1,7.4,0.7
	c0.7-0.8,1.5-1.5,2.4-2c3.5-1.8,6.8,0.4,8.7,1.7c0.3,0.2,1,0.6,1.4,0.9l0.1-0.1l0.1-0.1c3.4-3.2,5.9-2.3,7.4-1
	c0.9,0.8,2.2,2.5,1.4,5.6l-0.2,0.7c-0.1,0.4-0.2,0.8-0.3,1.2c0.4,0,0.8,0,1.3,0c1.3,0.2,2.5,0.8,3.4,1.6l0.1,0.1
	c0.1,0.1,0.3,0.2,0.4,0.3c0.5,0,0.9-0.1,1.3-0.5c1-1,1.7-2.1,2.2-3.4c0.6-1.7,1.8-3.2,3.4-4.2c1.1-0.6,2.4-0.9,3.6-1l8.3-0.6
	c4.9-0.4,6.8,1.7,7.6,3.5c0.1,0.3,0.3,0.7,0.3,1l0.5,0l9.3-0.8c1.7-0.1,5-0.4,7.5,1.8c1.3,1.3,2.2,2.9,2.6,4.7
	c0.1,0.4,0.2,0.8,0.4,1.2c0.2-0.1,0.4-0.1,0.6-0.2l0,0c-1.3-2.9-1-6.2,0.7-8.9l0.1-0.1c0.2-0.3,0.3-0.7,0.5-1
	c0.2-0.8,0.3-1.6,0.3-2.4c0.2-2.4,0.4-6.1,3.8-8C170.6,506.1,171.9,505.7,173.2,505.6z"/>
<path class="st0" d="M284.8,1661.9c0.5,0,1.2-0.6,1.9-1.2c0.9-1,2.1-1.7,3.4-2.1c1.5-0.4,3-0.3,4.4,0.1c0.7,0.2,1.5,0.3,2.2,0.2
	c0.4-0.1,0.8-0.2,1.2-0.4c0.4-0.2,0.8-0.3,1.2-0.4c1.2-0.3,2.4-0.5,3.6-0.5l1.2-0.1c2.6-0.2,5.1-1.4,6.9-3.3c-1.3,0-2.6,0.2-3.8,0.7
	c-0.8,0.3-1.7,0.5-2.6,0.7c-2.8,0.5-5.6,0.5-8.3,0.2c-4.5-0.4-8-0.6-11.1,2.7c-0.7,0.6-1,1.5-1,2.5
	C284,1661.4,284.5,1662,284.8,1661.9z"/>
<path class="st0" d="M338.7,627.2c7.4,1.1,15.1,1.9,22.9,2.4l35.9-62.4c1.1-1.7,1.9-3.5,2.4-5.4c0.4-2,0-4.2-0.7-7
	c-2.2-8.2-5.7-16.1-10.3-23.2c-2.5-3.8-5.5-8.6-4-13.9c0.2-0.6,0.4-1.3,0.7-2l0.1-0.1c0.4-1,0.5-1.5,0.6-1.9c-4.6-3.9-4.6-11-2.1-16
	c1.3-2.5,2.9-4.8,4.7-6.9l0,0c1.1-1.3,2.1-2.7,3-4.1c3.3-5.2,4.1-11.7,4.9-18.5c0.8-6.5,1.6-13.2,4.7-19.4c0.9-1.8-0.5-4.7-2.3-6.7
	c-0.7-0.8-1.5-1.6-2.3-2.3c-2.1-2.1-4.4-4.4-5.8-7.5c-1.8-4.1-1.5-8.5-0.9-12.1c-1.4-1.2-2.4-3.1-3.5-5.4l-0.1-0.3
	c-0.2-0.3-0.4-0.8-0.5-1c-3.2-4.6-7.8-7.9-13.2-9.4c-4-1-8.5-1.1-12.8-1.1l-0.2,0c-1.3,0-2.6,0-3.9,0c-12-0.2-23.8-2.6-35.1-4.9
	c-5.2-1-11.1-2.2-16-6c-1.5-1.2-2.9-2.5-4.1-3.9c-0.9-1-1.9-1.9-2.9-2.8c-6.3-5.3-16.7-4.8-22.5,1.1L251,416.7l-8.8,18.3
	c-4.4,7.9-6.8,16.7-7.2,25.7c-1.3,13.4-2.5,27.2-3,40.9c0,0.8-0.1,1.5-0.2,2.2l18.4,8.5c2.3,1,5.3,2.5,7.3,5.3
	c1.6,2.5,2.3,5.4,1.9,8.3c0.8-0.2,1.6-0.3,2.4-0.3l0.5,0c5.1,0.4,8.2,5.4,8,13l-0.6,25.8c0,2.4-0.1,6.3-2.8,9.2
	c-0.5,0.5-1,1-1.6,1.4c-0.3,0.2-0.6,0.4-0.8,0.7c-0.3,0.8-0.4,1.6-0.4,2.4c-0.8,21.9-1,44.2-0.8,66.1c0,4.9,0.1,10.1,0.3,15.7
	c10.7-2.1,21.8-1.3,31.7-0.6c2.5,0.2,5,0.4,7.5,0.5c10.6,0.6,21.3,0.4,31.9-0.5l0.2-24.7l-0.6-3c-0.2-1.1,0.1-2.3,0.9-3.2
	C336.3,627.3,337.5,627,338.7,627.2z"/>
<path class="st0" d="M83.3,305.9c-0.2,0.7-0.4,1.3-0.7,2c-1.1,2.5-3.1,4.1-4.9,5.5c-1.4,0.9-2.6,2.2-3.6,3.6
	c-0.8,1.6-1.5,3.2-2.1,4.9c-1.5,3.8-3,7.7-6.9,11c-0.9,0.8-1.9,1.5-2.9,2.1c1.8,0,3.5,0.8,4.8,2c0.9,1,1.6,2.2,2.1,3.4
	c0.1,0.3,0.3,0.7,0.5,1c0.8,0.8,1.8,1.4,2.9,1.7l1,0.5c10.5,5.1,16.3,16.6,14.2,28.1c-0.2,0.7-0.3,1.5-0.5,2.2
	c-0.5,1.4-0.7,2.9-0.6,4.3c0.1,0.7,0.2,1.3,0.4,2c0.3,1,0.5,2,0.6,3c0.2,2.6-0.1,5.2-0.9,7.7c-0.4,1.3-0.7,2.7-0.8,4.1
	c0,1.2,0.6,2.3,1.5,3.1l0.1,0c0.2-0.2,0.4-0.4,0.6-0.6c0.6-0.6,1.3-1.1,2-1.6c4.3-2.5,8.6,0,11.7,1.7c0.9,0.5,3.4,1.9,4,1.8
	c0.1-0.1,0.2-0.2,0.3-0.3c0.6-0.8,1.4-1.4,2.3-1.9c0.8-0.4,1.7-0.6,2.6-0.6c3.2,0,5.6,3.1,6.8,4.8l0.7,0.9c1.3,1.6,3.5,2.4,6.2,3.3
	c2.2,0.7,4.4,1.7,6.4,2.9c3.2,2.1,5.3,5,7.3,7.8c1,1.5,2.2,3,3.4,4.3c2.7,2.8,6.5,4.7,10.4,6.6c3.3,1.5,6.4,3.3,9.4,5.4
	c7,5.3,12.1,13.9,15.6,26.2c0.8,3,1.5,6,2.2,8.9c1.5,6.1,2.9,12.5,5.5,18.2c4.2,9.2,11.3,17.2,17.4,23.8c5-2.5,10.7-3.1,16.1-1.8
	l1.2,0.3c0.9,0.4,1.9,0.5,2.9,0.5c1.4-0.3,2.4-3.1,2.6-7.4c0.5-13.8,1.8-27.6,3-41.1l0-0.2c0.4-9.9,3.1-19.5,7.9-28.1l8.3-17.3
	l-11-36.4l0,0l-0.1-0.1l-0.4-0.2c-1.9-0.9-3.6-2.2-5-3.7c-1.1-1.1-2.2-2.2-3.3-3.4c-5-5.3-10.2-10.7-16.4-11l-0.7,0
	c-1.7,0.1-3.3-0.3-4.8-1c-4.1-2.2-4.2-6.6-4.3-9.8c0-1.4-0.1-3.6-0.6-4c-0.4-0.2-0.8-0.3-1.3-0.4c-1.5-0.3-3-0.9-4.2-1.8
	c-2.5-2.1-2.6-5-2.7-7.1c0-0.8-0.1-1.5-0.3-2.3c-0.5-1.3-3.1-2-5.3-2.5c-3.6-0.7-7.5-1.6-10.9-0.7c-2.5,0.6-5.1,2.7-5,5.1
	c0,1.2-0.6,2.4-1.6,3.1c-1,0.7-2.4,0.8-3.5,0.2c-5.7-2.7-12.8-5.4-17.1-2.1l-0.9,0.7c-2.1,1.7-6.1,4.9-10.1,2.1
	c-2.4-1.6-2.8-4.2-3.1-5.9c-0.6-3.9-2.5-7.4-5.3-10.1c-0.6,0.2-1.6,0.8-2,1c-2.2,1.2-5.6,3-9,0.8c-2.7-1.7-3.2-4.6-3.5-6.6
	c-1.1-6.3-3.8-12.2-8-17c-0.4-0.5-0.9-0.9-1.4-1.3c-0.8-0.3-2.7,1.1-3.9,2l-0.7,0.5c-4.5,3-9.4,4.2-13.7,3.3L83.3,305.9z"/>
<path class="st0" d="M396.5,628.9c2.2-0.1,4.4-0.5,6.5-1.3c2.4-1,4.5-3,6.6-4.8c7.5-6.8,16-14.5,20-24.2l0.2-0.4
	c1-2.4,2.3-5.7,5.7-7.2c2.6-1.2,5.3-0.7,7.1-0.3l12.1,2.3c0.4,0.1,0.9,0.1,1.2,0.2c0.3-0.4,0.6-0.8,0.8-1.2l7.6-13.1l-0.5-0.1
	c-1.4-0.2-2.8-0.6-4.1-1.3c-2.8-1.7-3.7-4.6-4.5-6.7l-0.2-0.7c-1.5-4.4-4.6-8.6-7.6-12.7c-5-6.7-10-13.7-9.5-22.6
	c0.3-6.1,3.2-11.3,6.1-16.2l1-1.7c1-1.9,2.1-4,1.9-5.7c-0.2-1.1-0.5-2.2-1-3.3c-1.1-2.7-2.5-6.4-0.3-10.1c1.8-3,5.5-4.5,10-4.1
	c0.8,0.1,1.5,0.2,2.3,0.3c1.3,0.3,2.6,0.4,3.9,0.2c2.6-0.6,4.6-4,6.4-7c4.6-8.1,10.1-15.6,16.2-22.6l1.3-1.4
	c2.4-2.5,4.6-5.3,6.4-8.4c2.1-4,2.8-8.8,3.4-13.4c0.8-6.3,1.3-12.7,1.8-18.4l0.3-3c0.3-3,0.5-6.5,0.9-9.9c0.1-1.3-0.1-2.7-0.6-3.9
	c-0.4-1.3-0.7-2.7-0.9-4.1c-0.6-5.2,2.8-9.3,4.9-11.4c0.4-0.3,0.7-0.7,1.1-1.1c-0.2-0.3-0.3-0.7-0.5-1c-0.4-0.7-0.7-1.4-1-2.2
	c-1.4-4.1,0.2-8.9,4.4-12.7c0.8-0.8,1.7-1.5,2.6-2.2c3.4-2,5.7-5.6,6.1-9.5c0.8-3.2,1.7-6.9,4.6-9.7c0.9-0.8,1.9-1.6,3-2.3
	c0.8-0.4,1.5-1,2.2-1.6c1.6-1.8,0.9-5.3-0.1-9.2c-2.2-9.3,0.7-13.7,3.5-15.7c0.2-0.2,0.4-0.3,0.7-0.4l0.3-0.2
	c-0.1-0.8-0.3-1.5-0.5-2.3c-0.2-0.7-0.4-1.4-0.5-2.1c-6.8,0.7-13.7,1-20.5,0.9c-13.2-0.1-26.5-1.4-39.3-2.6l-0.2,0
	c-13.9-1.3-28.2-2.6-42.2-2.5c-2.8,0-5.6,0.1-8.4,0.2l-3.6,0.1c-1.3,14.6-2.8,27.5-4.5,39.5c-2.4,17.2-5.4,34.7-8.8,51.8
	c-0.1,0.4-0.2,1.2-0.3,2.2c-0.7,5.1-1.1,7.8-1.8,9.6c-1,4.5-1.8,8.6-0.4,11.8c0.8,1.9,2.4,3.5,4.3,5.3c0.9,0.9,1.8,1.8,2.6,2.7
	c3.3,3.7,5.9,9.5,3.3,14.6c-2.6,5.1-3.3,11.1-4,17c-0.9,7.3-1.8,14.8-5.9,21.4c-1.1,1.7-2.3,3.3-3.5,4.8c-1.5,1.7-2.8,3.6-3.9,5.6
	c-1.3,2.6-1.4,6.2,0.5,7.5c3.9,2.8,2.2,7.3,1.3,9.7c-0.2,0.5-0.4,1-0.5,1.6c-0.6,2.2,1.3,5.3,3.1,8c5,7.8,8.8,16.4,11.3,25.4
	c0.9,3.2,1.5,6.6,0.9,10.2c-0.6,2.7-1.7,5.3-3.3,7.6l-34.1,59.1C378.7,630.1,387.6,629.8,396.5,628.9z"/>
<path class="st0" d="M679.3,334.2l-5.1-6.2c-0.8-1-2.7-3.3-2.1-6.2c0.4-1.7,1.5-3.2,2.9-4.2l0.1-0.1l-0.1-0.1
	c-3.1-4-5.5-8.5-7.1-13.3c-0.7-2.1-1.2-4.3-1.4-6.5c-0.7-0.5-1.4-1.1-2-1.7c-2.1-1.8-4-3.4-6.1-3.4c-2.6,0.1-5.1,0.8-7.4,1.9
	c-0.5,0.3-0.9,0.7-1.3,1.1c-1.2,1.1-2.7,2.5-4.5,2.5l-0.1,0c-1.3-0.2-2.5-0.8-3.4-1.8c-0.2-0.2-0.5-0.4-0.7-0.6
	c-1.5-0.8-3.1-0.7-5.4-0.4c-2.8,0.4-5.6,1.2-8.3,2.3c-2.8,1.2-5.8,2-8.9,2.5c-3.4,0.4-5.2-0.8-7.2-2.1l-0.5-0.3
	c-1.5-0.9-3.1-1.7-4.7-2.4c-1.2-0.5-2.4-1.1-3.6-1.7c-0.8-0.5-1.6-1-2.4-1.6c-0.9-0.7-1.9-1.3-2.9-1.7c-0.5,0-1,0-1.4,0.1
	c-1.4,0.3-2.9,0.2-4.3-0.5c-1.3-0.8-2.1-2.2-2.2-3.7c0-0.1,0-0.3-0.1-0.4l0,0c-0.2-0.1-0.3-0.2-0.5-0.2c-1.1-0.4-2.2-0.5-3.3-0.3
	c-1.1,0.1-2.2,0.1-3.3,0c-1.3-0.2-2.5-0.8-3.5-1.6c-0.5-0.5-1.2-0.8-1.8-0.9c-2.5-0.4-4.5,0.2-7,0.9c-0.7,0.2-1.5,0.4-2.3,0.6
	c-4.7,1.3-9.7,1.4-14.5,0.1c-0.4,0.2-0.8,0.4-1.2,0.5c-1.2,0.4-2.4,0.7-3.6,1c-1.7,0.4-3.4,0.7-4.1,1.6c-0.9,1-1,3.2-0.2,5.8
	c0.2,0.7,0.4,1.3,0.6,2c0.9,2.7,1.9,5.6,1.5,8.9c-0.5,5-4.3,9.5-9.5,11.7l-0.7,0.3c-0.5,0.2-1,0.4-1.4,0.7c0.1,0.9,0.3,1.7,0.6,2.5
	c0.7,2.5,1.7,6.2-1.1,9.1c-0.5,0.5-1.1,0.9-1.7,1.3l-0.5,0.3c-1.4,1-1.7,4-0.6,8.2s2.6,10.8-1.5,15.5c-1.1,1.2-2.3,2.2-3.7,3
	c-0.7,0.4-1.3,0.9-1.9,1.4c-1.4,1.3-2,3.7-2.6,6.2c-0.5,2.7-1.4,5.2-2.8,7.6c-1.5,2.2-3.5,4.2-5.7,5.8c-0.8,0.7-1.6,1.3-2.3,1.9
	c-1.6,1.5-3,3.7-2.5,5.1c0.2,0.4,0.3,0.8,0.5,1.1c1.1,1.7,1.6,3.7,1.3,5.7c-0.5,1.9-1.5,3.5-3,4.7c-1.5,1.4-3.2,3.6-3,5.6
	c0.1,1,0.4,2,0.7,2.9c0.7,2.2,1,4.4,0.8,6.7c-0.3,3.1-0.6,6.2-0.8,9.2l-0.3,3.5c-0.1,1.5-0.3,3-0.4,4.5l4.7-0.4
	c1.8-0.3,3.6,0.3,4.9,1.6c0.5,0.6,0.9,1.3,1.1,2c0.8,0.2,1.6,0,2.3-0.4c1-0.6,1.8-1.3,2.7-2.1c1.2-1.2,2.5-2.2,3.9-3
	c2.4-1.4,5.3-1.8,8-1c0.7,0.2,1.3,0.6,1.9,1c3.7-1.1,7.6-0.5,10.2-0.1c3.8,0.6,9.5,1.5,13,5.8l0.3,0.4c0.1,0.1,0.1,0.2,0.2,0.3
	c0.3,0,0.8-0.2,1.1-0.2c1-0.2,2-0.4,3-0.4c0.5,0,1,0.1,1.5,0.1c5.1,1,6.7,6.7,5.8,11.6l-0.3,1.3c-0.4,1.9-0.8,3.9-0.2,4.7
	c0.4,0.6,1.6,0.9,3,1.3l0.1-0.1c0.5-0.4,0.9-1,1.2-1.6c0.2-0.8,0.2-1.7,0.1-2.5c-0.1-0.7-0.1-1.5-0.1-2.2c0.2-3.3,1.7-7.6,8.2-9.4
	c2-0.6,2.4-1.5,3.4-3.9c0.2-0.6,0.5-1.2,0.8-1.8c2.2-4.6,4.7-5,7.4-5.3c0.7-0.1,1.4-0.2,2.3-0.4c2.9-0.7,3.3-2.6,3.7-6.4
	c0.1-0.8,0.2-1.6,0.3-2.4c1-5.5,4.8-6.7,8.1-7.8c0.7-0.2,1.5-0.5,2.3-0.8c2.9-1.1,5.2-3.4,7.6-5.8c1-1,2.1-2.1,3.3-3.1
	c2.3-1.9,4.6-3.8,6.8-5.7c3.7-3,7.4-6.1,10.9-9.4l0.4-0.4c2-1.9,3.9-3.6,4.8-6c0.3-0.9,0.6-1.9,0.7-2.9c0.2-1.7,0.7-3.3,1.4-4.8
	c1.4-2.6,2.5-3.1,4.4-3.1c0.4,0,0.8,0,1.2-0.1c1.4-0.2,2.3-0.8,3.6-2.4c1-1.2,1.9-2.5,2.7-3.9c1.3-2.3,2.9-4.5,4.9-6.3
	c0.4-0.3,0.7-0.5,1.2-0.7c0.1-0.1,0.3-0.1,0.4-0.2c0-0.3,0.1-0.6,0.1-0.9c0-1.2,0.3-2.4,1-3.4c2.6-3.6,5.9-2.4,7.9-1.8
	c0.9,0.4,1.8,0.6,2.8,0.5l0.2-0.1c-0.1-0.2-0.3-0.5-0.4-0.7c-0.8-1.2-1.2-2.7-1-4.1c0.4-2.4,3-4.6,5.3-6.5L679.3,334.2z"/>
<path class="st0" d="M778.1,247.1c-0.3-1.8-1-3.5-2-5c-1.3-2.3-2.7-4.9-2.4-8.4c0.1-1,0.3-2.2,0.5-3.6c0.5-3.2,1.8-10.7-0.2-11.8
	c-0.3-0.2-0.6-0.3-1-0.4c-1.3-0.3-2.4-1.2-3-2.4c-0.4-0.8-0.7-1.6-0.9-2.5c-0.1-0.7-0.4-1.4-0.8-1.9c-1.1-1.2-3.1-2.5-3.9-2.5l0,0
	c-0.8,0-1.6,0.8-2.5,1.6c-0.9,0.9-2,1.7-3.3,2.2c-2,0.5-4,0.7-6,0.6c-4.3-0.1-5.9,0.2-6.3,1.8c-0.1,0.7-0.1,1.5,0.1,2.2
	c0.3,1.5,0.2,3-0.3,4.5c-0.5,1.1-1.4,2.1-2.4,2.8c-0.4,0.3-0.8,0.6-1.1,1c-0.2,0.4-0.2,0.4,0.3,1.2c0.5,0.7,0.9,1.5,1.2,2.3
	c1,3.2,0.9,6.6-0.4,9.7c-0.3,0.8-0.6,1.6-0.9,2.4c-0.8,1.9-1.5,3.9-2,5.9c-0.8,2.9-1.8,6.8-5.4,8.7c-0.7,0.3-1.2,0.6-1.7,0.8
	c-0.9,0.3-1.6,0.9-2,1.7c-0.4,0.8-0.8,1.6-1.2,2.5c-1.7,4-2.8,6.4-4.8,7c-1.3,0.4-2.5-0.3-3.7-0.9c-0.3-0.2-0.6-0.3-0.9-0.4
	c-1.7-0.4-3.3,0.1-5.1,1.6c-1.3,1.2-2.5,2.6-3.5,4c-1.1,1.7-2.5,3.2-3.9,4.5c-2.3,2-3.5,2-5.4,1.4c-0.3-0.1-0.7-0.2-1.2-0.3
	c-1.4-0.3-1.8,0.1-3.2,2.1c-0.3,0.4-0.6,0.9-0.9,1.3c-1,1.5-2.3,2.8-3.7,4c-0.6,0.4-1.3,0.8-2,1.1c-0.4,0.1-0.8,0.3-1.1,0.6
	c-0.4,0.3-0.4,0.6-0.5,1.8c0,1-0.1,1.9-0.4,2.8c-1.2,3.6-3.9,4.4-6.3,5.1l-0.9,0.3c-1.2,0.4-2.3,0.9-3.4,1.4
	c-1.6,0.9-3.4,1.5-5.2,1.9c0.2,0.7,0.4,1.3,0.6,2c1.4,4.1,3.4,7.8,6,11.2c1.3,1.4,2,3.3,1.9,5.2c-0.3,1.9-1.4,3.6-2.9,4.7l-0.2,0.2
	l0.3,0.3l4.7,5.8c2.1-2.1,4.4-3.9,7-5.2c1-0.6,2.3-0.7,3.5-0.2c0.1,0,0.2,0,0.2,0c1.7-0.1,4.4-1.4,4.9-2.4c0.1-0.3,0.1-0.6,0.1-0.8
	c-0.1-1.5,0.6-2.9,1.8-3.8c1.7-1.3,3.9-1.5,5.9-1.6c0.7,0,1.4-0.1,2.1-0.2c4.3-1,7.8-4.1,11.4-7.3c2.5-2.3,5.2-4.4,8.1-6.2
	c1.5-0.8,4.6-2.6,7.7-1.9c1,0.3,2.1,0.7,3,1.2c0.9,0.6,2,0.9,3.1,0.7c3-0.5,5-2,5.8-4.4c0.2-0.7,0.4-1.2,0.5-1.8
	c0.7-2.6,1.6-4.6,5.9-4.6c8.1,0,12.8-2.8,16.3-9.9c1.2-2.4,1.3-3.6,0.8-5.8c-0.6-2.5-0.5-5.2,0.4-7.6l0,0c0.5-1.9,1.2-3.8,2-5.9
	C776.7,256.6,778.5,251.5,778.1,247.1z"/>
<path class="st0" d="M89,291.4c-1.1,1-2.1,2.1-2.8,3.4c-0.6,1.3-1.1,2.8-1.4,4.2c0.1,0,0.3,0.1,0.4,0.1c3.4,0.7,6.9-1.3,8.2-2.2
	l0.7-0.5c2.6-1.8,6.1-4.2,10.3-2.8c1.8,0.7,3.3,1.9,4.5,3.4c5,5.8,8.3,12.9,9.6,20.4c0.1,0.5,0.2,1.1,0.3,1.6
	c0.6-0.3,1.3-0.6,1.9-0.9c2.2-1.2,5.5-2.9,8.8-1l0.3,0.2c4.5,3.8,7.4,8.9,8.5,14.7c0,0.3,0.1,0.7,0.2,1c0.6-0.4,1.3-1,1.6-1.3l1-0.8
	c6.4-4.9,14.4-2.9,20.5-0.4c2-3.6,5.3-6.2,9.3-7.2c4.9-1.2,9.8-0.2,14,0.7c3.9,0.8,8.7,2.3,10.5,6.8c0.5,1.4,0.8,2.9,0.8,4.4
	c0,0.7,0.1,1.5,0.3,2.2l1.1,0.3c1.2,0.2,2.4,0.7,3.5,1.3c3.7,2.4,3.8,6.6,3.9,9.8c0,1,0.1,3.5,0.5,3.8c0.5,0.1,1.1,0.2,1.6,0.2
	l0.9,0c9.2,0.4,15.3,6.9,21.3,13.2c1.1,1.2,2.1,2.2,3.2,3.3c0.8,0.9,1.8,1.7,2.9,2.3l0.3,0.2c1.1,0.4,2,1,2.8,1.9
	c0.6,0.8,1.1,1.7,1.3,2.7l9.5,31.1l18.3-23.8c-6.3-9.4-7.9-21.2-9.2-30.7c-1.9-13.8-3.8-28-2-42.4c0.1-1,0.3-2.1,0.5-3.3l-7.4-1.9
	c-2.3,4.2-6.7,6.8-11.5,6.9c-0.4,0-0.7,0-1.1-0.1c-1.9-0.2-3.3-1.8-3.2-3.7c0.1-2.6,0.2-4.8-0.7-6.3c-0.4-0.5-0.9-0.9-1.5-0.9
	c-0.1,0-0.2,0-0.2,0c-0.1,0.1-0.2,0.2-0.3,0.4c-0.9,1.1-3,3.6-6.2,2.6c-1.2-0.4-2.3-1.2-3-2.2l-6.4-8.5c-1.1-1.5-3.2-4.2-2.6-7.6
	c0.1-0.6,0.3-1.3,0.5-1.9c0.1-0.2,0.2-0.4,0.3-0.6c-0.2-0.4-0.5-0.7-0.9-0.9c-1.3-0.5-2.8-0.8-4.2-0.8c-2-0.1-3.4-1.8-3.3-3.8
	c0-0.7,0.3-1.4,0.8-2l14-17.8c1.6-2,3.4-4.3,3.9-6.6c0.3-1.5-0.1-3.5-1.3-4c-0.8-0.3-1.7-0.4-2.6-0.4c-2-0.1-4.8-0.3-7-2.4
	c-3.1-2.9-2.7-7.4-1.5-10.4c0.5-1.1,1-2.1,1.6-3.2c0.5-0.9,1-1.8,1.4-2.8c0.3-1.1,0.5-2.3,0.6-3.5c-0.5-0.4-1-0.8-1.5-1.2l-0.3-0.3
	c-0.3-0.3-0.6-0.5-0.9-0.8c-1.1,0.5-2,1.1-2.9,1.9c-0.4,0.3-0.8,0.7-1.2,1c-2.7,2.1-6.1,3.1-9.5,2.8c-4-0.4-7.3-3.2-8.5-7.1
	c-0.3-1.2-0.4-2.5-0.3-3.7c0-0.6,0-1.2-0.1-1.8c-0.3-1.6-2.2-3-4-4.5l-1-0.8c-4.7-3.8-6.5-8.2-5.1-12.3c1.8-5,6.8-6,10.6-6.6
	c2.5-0.5,4.8-0.9,5.6-2.1c0.3-0.5,0.3-1.1,0.1-1.6c-0.3-1-1-1.8-1.9-2.2l-0.5-0.2c-1-0.3-2-0.8-2.9-1.5c-1.7-1.4-2.5-3.6-2.3-5.8
	c-13.5-1.1-27.3-0.6-40.6-0.1c-9.9,0.4-18.4,0.5-26,0.5c-3.3,0.1-6.6-0.3-9.7-1.4c-2.1-0.9-4.1-2.1-6-3.6L104,172
	c-0.2,0.1-0.5,0.2-0.7,0.4l-0.2,0.1l0,0c0.1,0.7,0.2,1.4,0.2,2.1c0,2-1.1,3.9-2.8,4.9c-0.5,0.3-1,0.7-1.3,1.2l0,0
	c1.2,0.7,2.2,1.7,2.7,3c0.8,2.3-0.5,4.4-1.6,6c-0.4,0.6-0.8,1.2-1.1,1.9l0.5,0c0.7-0.1,1.3,0,2,0.1l0.4,0.1c1.9,0.5,2.4,1.1,3,2.9
	l0.2,0.6c1.5,4.4,2.5,9,3.1,13.7c0.3,2.2,0.9,4.3,1.7,6.4c0.4,1.1,0.8,2.1,1.1,3.3c0.5,1.8,0.8,3.2,0.1,4.4
	c-0.6,0.9-1.6,1.6-2.8,1.7c-0.4,0.1-0.8,0.2-1.2,0.3c-1.8,0.7-2.9,2.8-3.3,6.3c-0.1,0.7-0.2,1.4-0.3,2c-0.5,3.6-0.7,5.8,1.4,7.4
	c2.4,2,10.2,9,9.1,16.9c-0.7,5-5,8-11.6,8.1c-4.6,0.1-8.4,3.3-9.5,8.1c-0.2,1.5-0.2,3.1,0.1,4.6c0.3,2.7,0.7,5.8-1.4,9
	C91.2,289,90.2,290.2,89,291.4z"/>
<path class="st0" d="M238.2,223.9c-0.2,1.2-0.7,4.1-3.1,5.7c-1.2,0.7-2.6,1.1-4,1l-0.6,0c-3-0.2-5.9-0.8-8.7-2
	c-0.1,0.7-0.3,1.3-0.5,1.9c-0.5,1.4-1.2,2.7-1.9,4c-0.5,0.7-0.9,1.5-1.2,2.3c-0.4,0.8-0.5,1.7-0.2,2.5c0.8,0.3,1.7,0.5,2.6,0.4
	c1.7,0,3.4,0.4,5,1c4.7,2.1,6.3,7.8,5.4,12c-0.8,3.9-3.3,7-5.2,9.5l-10.4,13.3c0.3,0.1,0.6,0.3,0.9,0.4c2.7,1.4,5.3,4.7,4.6,8.5
	c-0.1,0.6-0.3,1.2-0.5,1.8c-0.1,0.2-0.1,0.4-0.2,0.6c0,0.2,0.2,0.8,1.3,2.2l5.2,6.9c1.4-1.3,3.2-2.1,5.1-2c0.3,0,0.6,0,0.9,0
	c2.8,0.3,5.2,1.9,6.7,4.3c1.1,1.8,1.7,3.8,1.8,5.9c1-0.5,1.9-1.4,2.4-2.4c0.6-1.7,2-3.1,3.8-3.8c1.1-0.3,2.3-0.3,3.5,0l7.8,2
	c0.6-2.8,1.4-5.7,2.3-8.9c1.7-6,3.7-11.8,5.6-17.5l10.1-30.2c0.4-1.2,1.4-2.1,2.6-2.4c1.7-0.4,3-2.3,3.5-4.1
	c0.5-2.2,0.7-4.5,0.6-6.8l0-1.6c0-1.3,0.1-2.6,0.2-4c-3.2,0.1-6.1,1.5-8.2,3.9c-1.3,1.5-3.5,1.7-5,0.4c-0.3-0.3-0.6-0.6-0.8-1
	c-0.9-1.5-2.6-2.3-4.3-2c-0.2,0-0.5,0.1-0.7,0.2c-1.2,0.4-2.4,0.6-3.6,0.5c-3.6-0.4-5.3-3.1-6.5-5c-0.4-0.8-1-1.5-1.6-2.1
	c-0.6-0.1-1.2-0.2-1.7-0.1l-11.9,0.1L238.2,223.9z"/>
<path class="st0" d="M342.5,195c-13,0.1-26.4,0.2-39.3-3.2c-6.5,8.6-10.7,18.7-12.2,29.4c0,0.4,0,0.7-0.1,1.1l-0.1,0.3
	c-0.3,2.3-0.4,4.2-0.5,6.1l0,1.6c0.1,2.9-0.2,5.9-0.9,8.7c-0.9,3.6-3.4,6.7-6.8,8.4L273,276c-1.8,5.3-3.8,11.4-5.5,17.3
	c-1.1,3.8-2,7.3-2.7,10.7c0.1,0.5,0.1,1,0,1.5c-0.1,0.4-0.2,0.7-0.4,1c-0.4,1.9-0.6,3.4-0.8,4.8c-1.7,13.4,0.2,27.2,2,40.5
	c1.2,8.6,2.6,19.2,7.7,27.2c8.6-6,21.2-5.7,29.1,1c1.2,1,2.3,2.2,3.4,3.3c1,1.2,2.2,2.2,3.4,3.2c3.5,2.7,8.5,3.7,13,4.6
	c11.1,2.2,22.5,4.5,33.9,4.7c1.3,0,2.5,0,3.8,0l0.4,0l2.1,0l0.4,0c4-0.1,8.1,0.4,12,1.3c7,2,13,6.3,17.1,12.2
	c0.1,0.2,0.3,0.4,0.4,0.7c0.1-0.8,0.3-1.8,0.4-2.9c0.1-1.1,0.3-2.2,0.4-2.8c3.4-17,6.4-34.2,8.7-51.3l0,0c4.8-34.3,7.5-68.8,8-103.4
	c0.3-18.4,0-37-0.9-55.3L342.5,195z"/>
<path class="st0" d="M387.6,123.3l0,6.8c0.1,2.4-0.2,4.9-0.9,7.2c-0.9,2.2-2.2,4.3-3.7,6.2c-11.9,15.1-24.7,30-38.1,44.4l67.6-0.6
	l0.1,0c1.8,0.1,3.2,1.6,3.4,3.4c1,19.5,1.4,39.4,1.1,59.2c-0.3,18.4-1.3,37.8-3,57.7l2.6-0.1l0.3,0c2.8-0.1,5.6-0.1,8.4-0.2l2.8,0
	c13.7,0.1,27.8,1.4,40.3,2.6c20.1,1.9,40.8,3.8,60.9,1.4c1.1-1,2.4-1.8,3.9-2.2l0.6-0.2c2.8-1.1,4.8-3.5,5-5.8
	c0.2-1.7-0.4-3.7-1.2-5.9c-0.2-0.8-0.5-1.5-0.7-2.2c-1.5-5.3-0.9-9.8,1.9-12.7c2.1-2.2,4.7-2.9,7.2-3.5c-0.3-0.7-0.4-1.5-0.4-2.3
	c-0.1-4.2,3.1-8.5,5.2-11c-0.4-0.7-0.7-1.5-0.9-2.2c-3.8-11.1-10.6-20.9-19.7-28.2l-0.4-0.3c-0.3,0.2-0.8,0.5-1,0.6
	c-0.9,0.6-1.8,1.1-2.8,1.4c-3.3,1.2-7.3,0-10.2-2.9c-1.5-1.6-2.7-3.4-3.7-5.3c-0.3-0.5-0.5-0.9-0.8-1.4c-1.5-2.5-3.3-4.8-5.3-7
	c-3.3-3.7-6.9-7.1-10.9-10.1c-0.8-0.7-1.7-1.2-2.7-1.6c-0.5,0-0.9,0-1.4,0c-1.6,0.2-3.2,0-4.7-0.5c-4.8-1.9-5.1-7.3-5.3-10.8
	l-0.1-1.2c-0.6-8.8-9.2-15.5-18.4-21.5l-19.1-12.3c-1.3-0.7-2.4-1.7-3.3-2.8c-0.7-1.1-1.2-2.2-1.6-3.4c-0.1-0.5-0.3-0.9-0.5-1.3
	c-0.5-0.7-1.1-1.3-1.8-1.8l-8.7-7.2c-1.6-1.2-3-2.6-4.2-4.3c-0.6-0.9-1.1-1.8-1.5-2.8c-0.3-0.7-0.6-1.3-1-1.9
	c-1.2-1.8-3.8-2.9-7.6-3.4c-1.1-0.1-2.2-0.2-3.3-0.3c-3-0.1-6-0.5-8.9-1.4c-3.6-1.2-6.5-3.3-9.3-5.4
	C390.4,125.1,389,124.2,387.6,123.3z"/>
<path class="st0" d="M583.3,171.8c-0.2,0.1-0.5,0.2-0.7,0.4c-1,0.9-2.4,1.2-3.7,0.9c-2.2-0.4-4.3-2-6.2-3.5
	c-0.7-0.6-1.5-1.2-2.3-1.7c-2-1.2-4-2.4-6-3.7c-3.9-2.6-8.1-4.9-12.4-6.9l-1.6-0.6c-2.4-0.8-4.7-1.9-6.8-3.4
	c-0.6-0.5-1.2-1.1-1.7-1.7c-0.4-0.6-1-1.1-1.7-1.5c-1.4-0.6-2.8-1-4.3-1.3c-2.6-0.6-5.6-1.2-7.8-3.4c-1.2-1.3-2.3-2.8-3.2-4.4
	c-0.7-1.2-1.5-2.4-2.4-3.5c-2.8-2.8-6.7-3.8-10.8-4.7l-0.3-0.1c-2.2-0.5-4.2-1.4-6-2.7c-0.9-0.6-1.8-1.3-2.7-2
	c-1.8-1.6-3.8-2.8-5.9-3.9l-0.1,0c-0.7,0.1-1.5,0-2.2-0.3c-1.1-0.6-2.1-1.3-3-2.2c-0.6-0.8-1.5-1.3-2.4-1.5c-1.1-0.1-2.1-0.1-3.2,0
	c-2.4,0.4-4.9,0-7.1-1.2c-1.4-0.9-2.6-1.9-3.6-3.2c-1.4-2.3-4.2-3.4-6.8-2.6c-1.9,0.4-3.8,0.2-5.6-0.3c-1.9-0.9-3.5-2.3-4.6-4
	c-0.7-1-1.5-1.9-2.6-2.6c-1.1-0.5-2.3-0.8-3.5-1c-2.1-0.4-4.5-0.9-6.5-2.7c-1.5-1.6-2.5-3.5-2.9-5.7c-0.2-1-0.5-1.9-1-2.8
	c-1.9-2.8-4.5-5.2-7.5-6.8l-0.6-0.4c-2-0.9-3.7-2.5-4.9-4.4c-0.3-0.6-0.6-1.2-0.8-1.8c-0.5-1.2-0.6-1.5-1.6-2
	c-1-0.4-2.3-0.9-3.4-1.3c-2.5-0.8-4.8-1.8-7.1-3.2c-2.1-1.4-3.8-3.2-5.3-5.3c-0.9-1.2-1.9-2.4-3-3.4c-3.3-2.9-6.4-6.1-9.3-9.1
	c-1.4-1.5-2.3-3.4-2.8-5.3c-0.3-1.1-0.7-2.1-1.3-3c-0.6-0.9-1.4-1.6-2.3-2.2c-2-1.2-3.3-3.2-3.7-5.4l-0.5,74.8c3,1.3,5.8,3,8.4,5.1
	c2.2,1.8,4.7,3.3,7.3,4.4c2.3,0.7,4.7,1,7.1,1c1.2,0.1,2.4,0.2,3.6,0.3c5.9,0.7,10.2,2.8,12.6,6.4c0.6,0.9,1.1,1.9,1.6,2.9
	c0.3,0.6,0.6,1.2,1,1.8c0.8,1,1.8,2,2.8,2.7l8.7,7.2c1.4,1.1,2.6,2.4,3.5,3.9c0.4,0.8,0.8,1.7,1,2.6c0.1,0.5,0.3,1,0.5,1.4
	c0.4,0.4,0.9,0.7,1.4,1l19,12.4c10.8,6.9,20.8,15,21.6,27l0.1,1.2c0.1,1.1,0.2,4.3,0.8,4.6c0.5,0.1,1,0.1,1.5,0c1-0.1,2-0.1,3,0
	c2.2,0.5,4.3,1.5,6,3c4.3,3.3,8.2,7,11.8,11c2.3,2.5,4.3,5.2,6.1,8c0.3,0.4,0.5,0.9,0.8,1.4l0.1,0.1c0.7,1.4,1.6,2.6,2.6,3.8
	c0.7,0.8,1.7,1.3,2.8,1.2c0.5-0.2,0.9-0.4,1.3-0.7c1.4-1.1,3.2-1.7,4.9-1.8c0.4,0,0.8,0,1.2,0.1c1.3,0.3,2.5,0.9,3.5,1.8
	c9.9,8,17.5,18.6,21.7,30.6c0.9-1.2,1.7-2.4,2.4-3.7c0.9-1.7,2-3.2,3.2-4.7c0.4-0.4,0.8-0.9,1.2-1.3c0.5-0.5,1-1,1.4-1.6
	c0.6-1.3,0.9-2.7,0.9-4.1c0.1-1,0.2-2,0.4-3c0.4-1.9,1-3.7,1.5-5.5c0.5-1.8,1-3.2,1.4-4.8c0.1-0.4,0.2-0.9,0.3-1.3
	c0.2-2.1,1.1-4.1,2.5-5.6c1.5-1.3,3.1-2.4,4.9-3.2c2-1,3.6-1.8,4.6-3.4c0.4-0.8,0.7-1.7,0.9-2.6c0.3-1.3,0.7-2.6,1.4-3.8
	c1.5-2.5,3.7-3,5.5-3.5c0.7-0.1,1.4-0.4,2-0.7c1.3-0.7,1.7-2.1,2.2-4.3c0.2-0.8,0.4-1.5,0.6-2.3c0.8-2.2,2.2-4.1,4.1-5.4l0.6-0.5
	c1.4-1.2,2.4-2.7,3-4.4c1.6-3.6,0.5-4.2-0.1-4.6c-0.4-0.2-0.9-0.3-1.4-0.4c-1.6-0.2-3-0.9-4-2.1c-0.7-1-1.2-2.1-1.6-3.3
	c-0.2-0.8-0.5-1.6-1-2.3c-0.4-0.6-0.9-1-1.6-1.3l-0.7,0.1c-0.8,0.2-1.7,0.1-2.5-0.2c-1.4-0.6-2.4-2-2.4-3.6c0-0.5-0.1-0.6-0.1-0.7
	C585.4,171.4,584.3,171.4,583.3,171.8z"/>
<path class="st0" d="M145.7,117.5c-4.8,2.3-9.7,4.2-14.7,5.8c-2.6,0.9-5.4,1.8-8,2.8c-1.2,0.5-2.5,0.9-3.7,1.3
	c-3.8,1.2-7,2.2-8.9,5.5c-1.2,2-2.2,4.1-3.2,6.1c-1.5,3.3-3.2,6.5-5.3,9.5l-0.5,0.7c-1.5,2.1-2,2.8-1.4,4.3c0.1,0.3,0.2,0.6,0.5,0.9
	c0.1,0,0.4,0,0.7,0.1c1.1,0,2.2,0.3,3.3,0.7c3.9,1.7,5,6.8,4.4,11l-0.1,0.3l1.8,1.3c1.3,1.1,2.8,2,4.4,2.7l0,0
	c2.3,0.7,4.7,1,7.1,0.9c8.9,0.1,18-0.3,25.7-0.5c14.9-0.5,30.4-1.1,45.7,0.6c2,0.2,3.4,2,3.2,3.9c0,0.3-0.1,0.6-0.2,0.9
	c-0.3,0.7-0.5,1.5-0.6,2.3l0.4,0.2l0.7,0.3c3,1.2,5.2,3.7,6.2,6.8c0.9,2.6,0.5,5.4-1,7.7c-2.5,3.6-6.8,4.4-10.2,5
	c-3.2,0.6-4.8,1-5.1,2c-0.4,1.1,1.1,3,2.8,4.4l0.9,0.7c2.6,2,5.8,4.6,6.6,8.7c0.2,1.1,0.3,2.1,0.2,3.2c0,0.6,0,1.3,0.1,1.9
	c0.4,1,1.3,1.6,2.4,1.8c1.6,0.1,3.2-0.4,4.4-1.5l1-0.8c1.8-1.5,4.4-3.5,7.4-3.5c0.9,0,1.7,0.2,2.5,0.5c1.2,0.5,2.3,1.3,3.3,2.3
	c3.4,3.2,7.8,5.1,12.5,5.4l0.3,0c0-0.2,0.1-0.5,0.2-0.8l1.3-7.4c0.3-1.7,1.7-3,3.5-3l14.8-0.2c1.7-0.1,3.3,0.2,4.9,0.8
	c2,1.1,3.6,2.7,4.6,4.7c0.4,0.6,0.8,1.2,1.3,1.8c0.2,0,0.6-0.2,0.9-0.2c0.2-0.1,0.7-0.2,1.1-0.3c3.3-0.7,6.7,0.1,9.3,2.2
	c3.4-2.5,7.5-3.8,11.6-3.6c2.1-11.7,7.2-22.7,14.7-31.9c0.9-1.1,2.4-1.6,3.7-1.2c9.8,2.9,20,3.5,32.2,3.6
	c14.8-15.6,29.1-32,42.3-48.9c2.4-2.3,3.6-5.7,3.1-9l0.6-98.5c-0.2,0-0.3,0-0.5,0c-2.8-0.1-5.1-2.4-7.4-4.6c-1-1.1-2.1-2-3.3-2.8
	c-5.6-2.9-7.1-5.9-8.3-11.6c-0.9-4-1.5-4.2-5.8-4.7c-5.5-0.5-11-0.5-16.6-0.1C337.1,7.9,335,8,332.9,8c-5,0.1-10.5,0-16.9-0.4
	c-0.5,0-1.1-0.1-1.6,0c-0.1,0.4-0.2,1.2-0.3,1.9l-0.1,0.7c-0.5,3.1-0.8,5.3-3.9,7.6c-1.5,1.1-1.5,1.1-1.8,2.6
	c-0.1,0.3-0.2,0.7-0.3,1.1c-0.5,1.8-0.9,2.9-2.2,3.3c0,1,0,2.1,0.2,3.1c0.4,2.7,0.2,5.5-0.7,8.1c-2.4,6.2-4.6,10.4-6.9,12.8
	c-0.6,0.6-2.4,2.5-4.9,2.5c-0.5,0-0.9-0.1-1.4-0.2c-3.2-1-3.8-4.7-4.2-7.3l-0.1-0.7c-0.3-1.6-0.4-3.1-0.5-4.6
	c-0.1-1.5-0.2-3-0.5-4.4c-0.2-1.4-0.7-1.8-2-3.1c-0.7-0.7-1.3-1.5-1.9-2.3c-1.7-2.2-2.2-6.9-1.8-10.2c-0.4-0.3-0.9-0.6-1.4-0.9
	c-1.7-0.7-3-2-3.8-3.7c-1.2-2.4-1.2-2.4-4.6-2.8c-4.5-0.4-9.1-0.6-13.6-0.6c-0.1,1.5-0.2,3-0.3,4.4c-0.1,1.4-0.2,2.9-0.3,4.1
	c0,4.6-1.8,7-3.5,9.3c-0.5,0.6-1,1.3-1.5,2.2c-2.9,4.5-0.9,12.6-0.2,14.9c0.9,3,1.7,4.2,3.1,4.7c0.7,0.2,1.3,0.4,2,0.5
	c2.7,0.4,5.1,1.7,7,3.6c4,4.3,4.8,6.7,1.2,12.1c-0.9,1.3-1,1.9-0.9,2.4s0.6,0.9,1.5,1.8c1,0.9,1.9,1.9,2.6,2.9
	c1,1.6,1.3,3.8,1.8,6.4c0.1,0.4,0.2,1,0.3,1.6c0.2-1.1,0.8-2.1,1.6-2.8c1.4-1.2,3.3-1.4,5.6-0.7c2.3,0.8,4.3,2.2,6,4
	c0.8,0.8,1.7,1.5,2.7,2c1.9,0.1,3.9-0.4,5.4-1.6c0.2-0.1,0.4-0.3,0.5-0.5c0-1,0.5-1.9,1.3-2.6c0.8-0.7,1.9-0.9,2.9-0.7
	c0.5,0.1,1,0.1,1.5,0.2l0.2,0c2.3,0.2,5.2,0.4,7.5,2.4c4.8,4.2,4.3,10.9,3.9,15.8c-0.1,1-0.2,1.9-0.2,2.7c0,2.2,0.1,4.3,0.3,6.5
	c0.1,2,0.3,4.3,0.3,6.5c0.1,2.8-0.8,5.5-2.5,7.7l-0.5,0.7c-0.7,1.1-1.3,2.3-1.8,3.6c-0.4,0.8-0.8,1.7-1.2,2.5
	c-1.5,2.9-3.6,6.9-9.4,6.6l-0.8,0c-1.7-0.1-5.8-0.3-6.8,0.6c-0.1,0.1-0.1,0.3-0.1,0.4c0,0.5,0,1.1,0,1.5c0.1,2.5,0.1,5.1-2.3,8.3
	c-1.6,2.1-3.5,3.2-5.4,3.2l-0.4,0c-3.2-0.2-5-3.3-5.5-4.3c-0.3-0.6-0.6-1.1-0.9-1.7c-0.8-1.7-1.3-2.5-2.3-3
	c-0.1-0.1-0.2-0.1-0.3-0.1c-0.5,0.1-1.9,1.8-2.3,2.4l-0.6,0.7l-0.4,0.6l-0.1,0.1c-2.2,2.8-4.5,3.1-7.6,1c-1.5-1.2-2.8-2.6-4-4.2
	c-0.8,0.6-1.7,1-2.7,1.2c-2.3,0.4-4.6-0.4-6.1-2.1c-0.2-0.2-0.4-0.4-0.7-0.6c-1.2-0.4-2.4-0.5-3.7-0.6l-0.6,0
	c-0.5,0-0.9-0.1-1.4-0.1c-2.3-0.1-5-0.1-7.4-1.7c-3.7-2.4-3.5-5.7-3.4-7.5c0.1-0.5,0.1-1.1,0-1.6c-0.4-1.1-1-2.2-1.8-3.2
	c-0.1-0.2-0.3-0.4-0.5-0.6c-0.8-0.8-1.4-1.7-1.8-2.7c-0.4-1.1-0.5-2.3-0.4-3.5c0-0.2,0-0.4,0-0.5l-0.3-0.3c-0.9-0.8-1.6-1.9-2-3
	c-0.3-1.2-0.4-2.5-0.1-3.8c0-0.3,0.1-0.6,0.1-0.8c0-0.1,0-0.1-0.1-0.2c-0.2-0.1-0.5-0.1-0.9-0.2c-2.1-0.2-4.1-1.2-5.5-2.9
	c-0.7-1-1.2-2.2-1.5-3.4c-0.1-0.4-0.2-0.7-0.4-1.1c-0.3-0.4-0.6-0.7-1-1c-0.7-0.5-1.4-1.1-2-1.7c-3.1-3.5-2.6-7.2-2.2-9.9
	c0.3-1.9,0.4-3.1-0.2-4c-3-4.9-6.8-7.6-11.3-7.8c-1.5-0.3-2.9,0.6-3.3,2.1c-0.7,1.8-0.7,1.8,1.7,3.7l0.3,0.3
	c4.9,3.8,3.8,9.9,3.1,14.3c-0.3,1.3-0.4,2.6-0.5,3.9l0,2c0,4.2,0,8.5-2.4,13.3c-0.9,1.7-2.9,2.4-4.6,1.6c-0.7,1.5-1.7,2.7-3,3.7
	c-1.4,1-3.2,1.4-4.9,1c-1.7-0.5-3.1-1.7-3.8-3.3c-0.2-0.3-0.4-0.6-0.6-0.9l-0.2-0.3c-0.3,0-0.8,0-1.1,0c-2.7,0.1-5.5,0.2-7.5-1.8
	c-1.4-1.4-2.1-3.4-2-6.3c0-0.6,0.1-1.1,0.1-1.5c0-0.1,0-0.2,0-0.2l0,0c-1.5-0.9-3.1-1.7-4.8-2.3c-2.2-0.9-4.4-2-6.5-3.2l-0.8-0.5
	c-1.1,2.7-2,5.4-2.7,8.2C152,113.8,149.9,115.4,145.7,117.5z"/>
<path class="st0" d="M175.4,31.5c-0.8,0.4-1.6,0.8-2.3,1.2l-0.5,0.3c-1.8,1-3.9,2.4-4.4,3.9c-0.2,0.9-0.4,1.9-0.4,2.8
	c-0.2,2.2-0.3,4.6-2,6.6c-1.1,1.2-2.5,2.1-3.9,2.9c-4,2.3-4.6,3.2-3.7,4.9c0.8,1.1,1.8,2.1,3,2.8c1.4,0.9,2.6,2.1,3.6,3.3
	c3.6,4.9,2.1,10.2,0.8,14.8c-0.2,0.7-0.4,1.4-0.6,2.1c-1.6,5.7-3.6,11.2-6,16.6l-0.1,0.3l0,0c0.6,0.4,1.2,0.7,1.9,1.2
	c1.7,1,3.5,1.9,5.3,2.6c2,0.8,3.9,1.7,5.8,2.8c3.5,2.1,3.6,4.5,3.4,6.9c0,0.4-0.1,0.7-0.1,1.2c0,0.3,0,0.5,0,0.8c0.6,0,1.4,0,2.1,0
	c2.6-0.1,5.1,0,7.4,3.2l0.2,0.3l0.2-0.3c0.9-1.8,1.9-3.6,3.9-4.2c0.5-0.2,1.1-0.2,1.7-0.2c0.4-2.2,0.5-4.4,0.4-6.6l0-2
	c0.1-1.7,0.3-3.4,0.6-5.1c0.5-3.1,1.1-6.3-0.4-7.5l-0.3-0.3c-3-2.3-6.8-5.3-3.9-12.1c1.5-4.3,5.8-6.9,10.3-6.4
	c7,0.4,12.7,4.2,17,11.2c1.9,3.1,1.5,6.3,1.2,8.6c-0.3,2.3-0.4,3.3,0.5,4.3c0.3,0.3,0.6,0.5,0.9,0.8c1.2,0.8,2.1,1.8,2.9,3
	c0.5,0.9,0.8,1.8,1.1,2.8c0.1,0.3,0.2,0.7,0.4,1c0.1,0,0.7,0.1,1,0.2c1.7,0.3,5,0.8,6.5,5c0.5,1.4,0.5,2.8,0.2,4.3
	c0,0.2-0.1,0.3-0.1,0.5l0.2,0.2c0.9,0.8,1.6,1.9,2,3c0.3,1,0.4,2,0.3,3c0,0.2,0,0.4,0,0.6c0,0.2,0.2,0.2,0.3,0.4
	c0.4,0.4,0.7,0.8,1.1,1.3c1.4,1.8,2.4,3.8,3,6c0.2,1.1,0.2,2.3,0.1,3.4c0,0.4,0,0.8,0,1l0.2,0.1c1.2,0.5,2.4,0.7,3.7,0.6
	c0.6,0,1.3,0,1.9,0.1l0.5,0c2.2,0,4.3,0.5,6.3,1.3c0.9,0.5,1.7,1.1,2.4,1.9c0.2-0.1,0.4-0.3,0.6-0.5c1.2-1.1,3.1-2.8,5.5-2.5
	c1.2,0.2,3.9,1,3.8,5.3l0,0.1c0.2,0.3,0.7,0.8,1.1,1.2l0.1-0.2c1.5-1.8,4.1-5,7.9-5c1.3,0,2.6,0.4,3.7,1c3,1.6,4.2,4.1,5.2,6
	c0.2,0.4,0.4,0.8,0.6,1.2c0.5-0.9,0.5-1.6,0.5-3.1c0-0.7,0-1.4,0-2.1c0-2.1,0.9-4,2.4-5.5c3.2-3,8.5-2.6,12-2.4l0.8,0
	c1.2,0,1.2,0,2.7-2.7c0.4-0.7,0.7-1.4,1-2.1c0.7-1.6,1.5-3.2,2.4-4.7l0.5-0.7c1.1-1.6,1.3-1.8,1.3-3.7s-0.1-3.9-0.3-5.9
	c-0.2-2.4-0.3-4.8-0.3-7.2c0-1,0.1-2,0.2-3.1c0.3-3.7,0.6-8-1.5-9.9c-0.9-0.4-1.8-0.6-2.7-0.6c-0.5,0.8-1.2,1.4-1.9,2
	c-3.2,2.4-7.2,3.5-11.2,3c-2.7-0.5-4.6-2.3-6.3-3.9c-0.4-0.4-0.8-0.7-1.1-1c0,2.2-0.7,5.3-4.2,6.4c-1.8,0.7-3.8,0.5-5.5-0.5
	c-3.3-2-4.1-6.7-4.8-10.9c-0.2-1.3-0.4-2.6-0.8-3.8c-0.4-0.5-0.9-1-1.4-1.5c-1.8-1.5-3.1-3.5-3.6-5.8c-0.4-2.7,0.3-5.5,2-7.7
	c0.4-0.5,0.8-1.1,1-1.5c-0.3-0.4-0.9-1-1.5-1.6c-1-1.1-1.6-1.2-3.3-1.5c-1-0.2-1.9-0.5-2.9-0.8c-4.9-1.6-6.6-5.7-7.7-9.5
	c-1.4-4.9-3.1-14.1,1.1-20.7c0.6-1,1.2-1.8,1.8-2.6c1.4-1.9,2-2.8,2.1-5.1c0-1.4,0.2-3,0.3-4.5c0.1-1.2,0.2-2.4,0.3-3.7
	c-4.7,0.2-9.6,0.5-15.2,1c-0.5,0.1-1.1,0.2-1.6,0.3c-1,0.3-2.1,0.4-3.2,0.4c-0.4,0-0.7,0.1-1.1,0.1c-1.1,0.2-2.2,0.2-3.2,0
	c-0.4-0.1-0.7-0.3-1-0.4c-1-0.7-1.8-1.6-2.4-2.6c-0.3-0.5-0.6-1-0.8-1.4c-0.1-0.3-0.3-0.6-0.5-0.8l0,0c-0.4-0.1-0.8-0.1-1.3-0.1
	c-3.8-0.2-5.1-0.7-7.1-4.3c-1.7-3.2-2.4-4.2-4.8-3.8c-2.1,0.3-3,1.8-3.9,5.8c-0.1,0.5-0.1,1-0.2,1.7c-0.2,2.5-0.6,5.9-3.2,7.2
	c-1.2,0.5-2.5,0.7-3.8,0.6c-0.6,0-1.2,0-1.8,0.1c-1.1,0.3-1.3,0.6-1.8,1.7c-0.4,0.9-0.9,1.7-1.5,2.4c-1.9,2.4-4.6,2.2-6.3,2
	c-2.1-0.2-2.4-0.1-2.8,1.1c-0.2,0.5-0.3,1.1-0.4,1.7c-0.1,1.5-0.7,2.9-1.6,4.1C179.6,29.1,177.6,30.5,175.4,31.5z"/>
<path class="st0" d="M330.9,965.7c0.6,0,1.3,0.1,2,0.2c1.5,0.3,3.1,0.3,4.6,0c0.9-0.3,1.8-0.7,2.7-1.3c0.8-0.5,1.6-0.9,2.5-1.3
	c-0.5-1.9-1.2-3.8-2.2-5.5c-0.9-1.3-1.9-2.4-3.1-3.5c-2.3-2.3-4.9-4.8-5.7-8.7c-0.3-1.4,0.1-2.8,0.9-3.9l0.6-65.5
	c-0.7,0.1-1.4,0.1-2.1,0.1l0,0c-7.7-0.1-14.9-4.1-19.1-10.6c-0.2-0.4-0.4-0.8-0.7-1.1l-0.1-0.1c-0.4-0.9-1-1.7-1.7-2.5
	c-1.1-0.6-2.3-1.1-3.6-1.2c-2.2-0.3-4.3-1.2-6.2-2.4c-0.9-0.7-1.7-1.5-2.4-2.3c-0.4-0.6-0.9-1-1.5-1.5c-0.8-0.3-1.7-0.4-2.5-0.4
	l-0.8,0c-5.1-0.3-9.8-1.9-14.3-3.5c-3.6-1.4-7.2-2.4-11-3c-6.6-0.8-13.2,0.8-18.6,4.6c-1.6,1.1-3.8,0.7-5-0.9
	c-0.2-0.3-0.4-0.7-0.5-1c-0.2,0-0.4,0-0.7,0c-0.6,0.1-1.2,0.3-1.8,0.6l-0.1,0.1c-1.3,0.6-2.8,0.9-4.2,1.1c-3.6,0.3-6.9-1.6-9-2.8
	l-6-3.5c-1.9,1.4-4.1,2.1-6.5,2.2c-3.6,0.1-7-1.6-9-4.5c-0.7-1.2-1.3-2.5-1.8-3.8c-0.3-0.9-0.7-1.7-1.2-2.5c-1-1.2-3.2-1.6-5.5-2
	c-0.7-0.1-1.5-0.3-2.2-0.4c-1.3-0.3-5.8-1.6-8.1-5.3l-0.2-0.3c-2.7-0.1-5.3-1.3-7.2-3.2c-0.5-0.5-1-1-1.5-1.6
	c-1.1-1.3-2.2-2.5-3.1-2.6c-0.9,0-1.7,0.1-2.6,0.3c-1.1,0.3-2.3,0.5-3.4,0.6c-5.1,0.3-9.3-3-13-6.5c-1.2-1.2-4.1-4.3-4-7.9
	c0-1.7,0.7-3.4,2-4.5c0.6-0.5,1.3-1,2.1-1.3l0.5-0.2c0.2-0.1,0.7-0.4,0.8-1.5c0.1-1.4-0.4-2.7-1.4-3.7c-2.3-2-6.2-2.4-9.7-2.4
	l-1.2,0c-0.8,0-1.6,0-2.3,0c0.1,2.9,0.2,5.4,0.2,7.8c0,3.7,0,7.4-0.1,11c-0.1,9.3-0.2,19,1.2,28.3c3.7-0.1,6.4,3.4,7.1,7.1l0.1,0.5
	c0.1,0.8,0.3,1.7,0.7,2.5l0.1,0c0.8,0.2,1.5,0.5,2.2,0.9c1.5,1,2.4,2.6,2.5,4.3c0.2,2-0.6,4-2,5.4c-1.7,1.6-4,2.3-7.1,2.2
	c-0.5,0-1-0.1-1.5-0.1l-0.2,0c-0.8-0.1-1.6-0.2-2.4-0.1c-2,0.3-3.7,2.2-5.8,4.5c-0.7,0.8-1.6,1.8-2.5,2.7c-2.3,2.2-2.3,2.2-2.5,4
	c-0.4,3.1-1.1,7.6-6.3,9.5c-0.4,0.1-0.7,0.3-1.1,0.4c-0.3,0.1-0.6,0.2-0.9,0.3c-0.5,0.5-0.9,1.1-1.2,1.8l-0.4,0.8
	c-2.8,4.9-7.5,8.5-13,9.8c-1.4,0.4-2.9,0.2-4.1-0.4l-0.2-0.1c-0.1,0.5-0.2,1-0.3,1.5c-1.5,5.5-6.3,7.7-10.7,9.7
	c-3.1,1.5-6.1,2.8-6.9,5c-0.2,0.6-0.4,1.2-0.5,1.8l0,0.2c-0.5,2.3-1.2,5.5-4.4,7.1c-0.3,0.2-0.7,0.3-1,0.4l0,0
	c0,1.2,0.1,2.3,0.3,3.5l0.1,0.4c1.6,10.9-5.7,21.2-16.5,23.3c-1.4,0.2-2.8,0.3-4.1,0.4c-1.9,0-3.8,0.3-5.6,1
	c-1.3,0.8-2.4,1.8-3.4,2.9c-0.7,0.8-1.5,1.5-2.3,2.2c-1.8,1.6-4,2.7-6.3,3.1c0.1,3,0,6.1-0.3,9.1c-0.1,1.6-0.6,5.9-4,8
	c-1.4,0.8-3,1.2-4.5,1.2l-0.7,0.1c-2.2,0.3-4.3,1.2-6,2.6c-0.6,0.6-1.5,0.9-2.3,0.8c-0.2,0-0.4,0-0.5,0c-0.8-0.1-1.5-0.5-2.1-1.1
	c-0.5,0.5-1.2,0.8-1.8,0.9c-4.3,0.6-8.4-2.3-9.1-6.6c0-0.2,0-0.4-0.1-0.6l-0.3,0.1l-2,0.6c0.4,1.9,0.8,3.8,1.4,5.6
	c0.6,2,1.1,4.1,1.5,6.2c0.6,3.7,0.6,7.6,0,11.3c-0.1,0.7-0.2,1.4-0.4,2.1c-0.4,1.3-0.5,2.7-0.4,4.1c0.7,3,3.3,6.8,5.5,9.7
	c0.4,0.5,0.7,1,1,1.4c0.3,0.4,0.6,0.9,1,1.3l0.6,0.8c2.3-0.4,4.4-0.6,6-0.8c54.4-5.8,109.8-8.9,163.5-11.8l0.2,0
	c23.8-1.3,50.8-2.8,77-1.5l-0.1-0.2c-1-3.3,0.1-5.9,1.1-8.3c0.8-1.5,1.2-3.2,1.2-4.9c-0.2-3.6-1-6.3-2.5-8.2c-5-6-3.9-14.7-3-22.3
	c0.2-2,0.5-3.8,0.6-5.5c0-0.5,0-1.1,0-1.7c0-2.2,0-4.9,1.3-7c1.8-2.8,8.7-5.4,11.7-4.8c2.2,0.4,3.7,1.7,4.1,3.4
	c0.4,1.7-0.4,3.4-2.1,4.7c-0.5,0.3-1,0.6-1.5,0.9c-0.4,0.2-1.1,0.6-1.6,0.9c2.1,0.1,4.3,0,6.4-0.3c1.1-0.1,2-0.2,2.6-0.2
	c3.6-0.2,7.3,0.5,10.5,2.1c1,0.5,2,1,3,1.6c1,0.6,2,1.1,3,1.5c1.6,0.6,3.2,1,4.8,1.1c2.4,0.2,4.7,0.9,6.9,1.9
	c1.3,0.8,2.6,1.7,3.8,2.7c1.2,1,2.4,1.9,3.7,2.6C324,965.2,326.8,965.4,330.9,965.7z"/>
<path class="st0" d="M10.1,926.8c0.2,0.2,0.5,0.4,0.8,0.7c0.2,0.3,0.6,0.6,1,0.9c1.6,1.5,3.7,3.4,3.5,6.8c-0.2,1.8-0.7,3.5-1.6,5.1
	c-0.5,0.9-0.9,2-1.1,3l-0.4,1.8c-0.5,2.7-1.2,5.7-0.7,7.9c0.2,0.9,0.4,1.7,0.6,2.5c0.7,2.4,1.4,4.9,0.2,8.2c-0.3,0.7-0.5,1.3-0.8,2
	s-0.5,1.1-0.7,1.7c4.5-1.1,6.6,0.9,7.5,2.2c0.2,0.4,0.4,0.7,0.6,1.1c0.2-0.2,0.5-0.4,0.7-0.5c0.5-0.2,1.1-0.4,1.7-0.4
	c0.7,0,1.3,0.2,1.8,0.5c1.3,0.8,2.5,1.8,3.6,3c2.1-1.1,4.4-1.8,6.8-2.1l0.8-0.1c0.5,0,1-0.1,1.5-0.2c0,0,0.4-0.4,0.6-2.6
	c0.4-4,0.4-8.1,0.1-12.1c-0.2-2,1.3-3.7,3.3-3.8c0.7-0.1,1.4,0.1,2,0.5c0.6,0.3,2.2-0.1,3.6-1.4c0.6-0.5,1.2-1.2,1.8-1.8
	c1.5-1.7,3.3-3.2,5.2-4.3c2.8-1.5,5.8-1.6,8.4-1.8c1.1,0,2.2-0.1,3.4-0.3c6.9-1.5,11.6-8.1,10.7-15.1l-0.1-0.4
	c-0.5-3-1.5-8.4,3.1-10.9c0.4-0.2,0.8-0.4,1.2-0.5l0.3-0.1c0.3-0.7,0.5-1.5,0.6-2.3c0.2-1,0.5-2,0.8-3c1.9-5,6.5-7.1,10.6-9
	c3.3-1.5,6.2-2.9,6.8-5.1c0.1-0.3,0.1-0.7,0.2-1l0-0.2c0.1-1.2,0.4-2.3,0.9-3.4c0.8-1.7,2.4-3,4.2-3.5c1.5-0.4,3.1-0.1,4.4,0.9
	c0.3,0.3,0.7,0.5,0.9,0.9c3.2-0.9,6-3.1,7.6-6l0.4-0.7c1-2.8,3.4-4.9,6.4-5.6l0.1,0l0.6-0.2c1-0.4,1.2-0.7,1.7-3.8
	c0.6-4.2,1.9-5.5,4.5-8c0.8-0.7,1.4-1.5,2.1-2.2l0.2-0.2c2.6-2.9,5.5-6.2,10.2-6.8c1.4-0.2,2.7-0.2,4.1,0l0.8,0.1
	c-2.3-1.8-2.9-4.8-3.3-6.8l-0.1-0.4c-0.1-0.3-0.1-0.6-0.3-0.8l-0.3,1.9l-1.1-2c-0.7,0.1-1.4,0-2-0.3c-1.2-0.5-2.8-1.6-3.3-4.6
	c-1.7-10.4-1.6-20.8-1.5-31c0-3.5,0-7.2,0.1-10.9c0-2.6-0.1-5.4-0.3-8.7c-1.2-0.3-2.3-0.7-3.4-1.3c-1.2-0.6-2.3-1.3-3.3-2.1
	c-1-0.7-2-1.4-3.1-1.9c-0.7-0.2-1.4-0.3-2.1,0c-0.1,0-0.1,0-0.1,0.1c-0.4,1.1-1.4,2-2.6,2.2c-1.2,0.3-2.5-0.1-3.3-1
	c-2.6-2.8-6-4.8-9.8-5.8l-0.6-0.1c-2-0.5-4.7-1.1-6.5-3.5c-0.6-0.9-1.1-1.8-1.4-2.8c-0.1-0.3-0.2-0.7-0.4-1c-0.4-0.7-2-0.6-5.1-0.2
	c-3.1,0.5-7.3,1-10.7-1.1c-0.8-0.5-1.5-1.1-2.2-1.7c-0.4-0.4-0.7-0.7-1.2-1c-0.4,0-0.8,0.1-1.1,0.2c-1.3,0.4-2.7,0.4-4.1,0.2
	c-4-0.8-5.7-4.8-6.4-6.5l-11.7-27.9c-5.6,1.4-10-0.1-11.7-4.1c-0.5-1.2-0.8-2.6-0.8-3.9l0-0.3c-1.3-0.2-2.5-0.8-3.5-1.7
	c-0.8-0.7-0.8-0.7-1.1-0.5c-0.6,0.2-0.6,0.2-0.8,1.9c0,0.5-0.1,0.9-0.1,1.4c-0.3,3-1.9,5.6-4.3,7.4c-1.3,0.9-2.7,1.7-4.2,2.1
	c-1.1,0.3-2.1,0.8-3.1,1.5c-1.4,1.2-1.6,3-1.7,6c0,0.7,0,1.3-0.1,2c-0.1,2.4-1.5,4.5-3.6,5.6c-0.8,0.4-1.4,1-1.8,1.8
	c-0.5,1.1,0.3,4.7,0.6,6.2l0.2,0.9c0.1,0.3,0.1,0.6,0.2,0.8c0.4,1,0.5,2.1,0.4,3.2c-0.2,1-0.6,1.9-1.1,2.7c-0.4,0.5-0.6,1.1-0.7,1.8
	c0.1,1.3,0.6,2.6,1.3,3.6c0.8,1.4,1.4,2.9,1.7,4.5c0.2,1.5-0.1,3.1-0.8,4.5c-0.3,0.6-0.4,1.2-0.5,1.8c0,0.4,0.4,0.8,0.9,1.5
	c1.4,1.3,2.1,3.3,1.9,5.2c-0.3,1.6-1.1,3-2.3,4.1c-0.9,1-1.3,1.4-1.3,2.1c0,0.9,0.8,1.9,1.5,2.9c0.4,0.5,0.7,0.9,1,1.4
	c1,1.5,1.8,3.1,2.6,4.7c0.4,0.8,0.8,1.6,1.3,2.4c1.9,3.5,1.9,6.6,1.9,9.6c0,1.4,0,2.8,0.2,4.2c0.2,1.8,0.9,2.5,2.4,4.1l0.2,0.2
	c1.9,2.1,3.4,4.6,4.2,7.4c0.3,0.9,0.7,1.7,1.1,2.5c1,1.8,1.6,3.7,2,5.7c0.6,3.8-0.6,7-3.7,10.2c-1.9,1.8-4.1,3.5-6.3,4.8
	c-2,1.2-3.9,2.7-5.6,4.3c-2.1,2.1-2.2,4-0.4,7.7l0.4,0.8c1.5,3.1,3.5,7.3,1.8,11.4c-0.5,1.2-1.2,2.3-2,3.3c-1.3,1.8-2,3-1.9,4.6
	c0,0.3,0.1,0.6,0.3,0.8c0.6,1.1,0.7,2.4,0.3,3.6c-0.7,2-2.5,3.1-3.9,3.8c-0.4,0.2-0.8,0.4-1.2,0.7c-1.7,1.1-2.6,3.2-2.2,5.2
	c0.2,1.2,0.5,2.5,0.9,3.7c1.5,5.1,3.9,13.7-3.6,15.9c-0.6,0.1-1.1,0.2-1.7,0.2L10.1,926.8z"/>
<path class="st0" d="M51.6,552.4l0.4,2.6c0.2,1.6,0.5,3.2,0.7,4.9c0.1,1,0.1,2.1,0.1,3.1c-0.1,1.3,0,2.5,0.3,3.8
	c0.5,1.2,1.1,2.4,2,3.4c1.6,1.8,2.6,4,3,6.3c0.1,1.1,0.1,2.1,0.1,3.2c-0.1,2.3,0,3.7,0.9,4.6c0-0.2,0.1-0.5,0.1-0.6
	c0.1-0.8,0.4-1.6,0.7-2.4c1-2.3,3.2-3.7,5.7-3.6c2.5,0.2,4.6,2,5.3,4.4c2,6.1-1.4,9.5-4.5,11.7c-2.3,1.6-2.5,2.3-2.1,3.7
	c0.2,0.7,0.5,1.3,1,1.8c1.2,1.5,2.2,3.1,0.5,6.3c-0.2,0.4-0.4,0.8-0.6,1.1c-0.9,1.5-1,1.9-0.6,2.7c0.4,0.7,0.9,1.3,1.5,1.8
	c1.5,1.4,2.7,2.9,2.2,6.4c-0.6,4.6-2.7,9.5-4.6,13.8l-0.6,1.4c-2.2,4.9-4.8,9.5-7.8,14c-0.9,1.5-1.9,3-2.8,4.5
	c-2.1,3.5-3.2,7.4-3.2,11.5c0,5.2-2.2,8.4-4.6,12.1c-0.3,0.5-0.7,1-1,1.5c-1.4,2-1.6,4.6-0.5,6.8c0.7,1.3,1.6,2.4,2.6,3.4
	c1.1,1.1,2.1,2.3,2.8,3.6c2,3.5,0.8,7.1-0.3,10.3c-0.8,2.3-1.5,4.4-1,6.2c0.5,1.5,1.2,2.9,2,4.2c1.3,2.2,2.6,4.5,2.8,7.1
	c0.1,2.7-0.5,5.5-1.8,7.9c0.4,1,0.6,2.1,0.7,3.2l0.1,1c0,0.5,0.1,0.9,0.2,1.4c0.3,0.6,2.8,0.6,5.9-0.7c1.8-0.8,3.9,0.1,4.7,1.9
	c0,0,0,0,0,0l13,30.9c0.8,1.9,1.2,2.2,1.3,2.3s0.7-0.1,1-0.2c1.3-0.4,2.7-0.5,4.1-0.2c1.8,0.4,3.3,1.4,4.6,2.7l0.1,0.1
	c0.3,0.3,0.6,0.6,1,0.8c1.2,0.8,3.8,0.4,6,0.1c3.9-0.5,9.2-1.3,12.1,3.4c0.4,0.7,0.8,1.5,1.1,2.3c0.1,0.3,0.2,0.7,0.4,1
	c0.7,0.4,1.6,0.7,2.4,0.9l0.7,0.2c3.9,1,7.5,2.8,10.6,5.3c0.2-0.1,0.4-0.2,0.6-0.3c1.3-0.6,2.6-0.9,4-0.8c1.2,0,2.5,0.2,3.6,0.7
	c1.6,0.7,3.1,1.6,4.6,2.6c0.8,0.6,1.5,1.1,2.4,1.5c-0.4-6.6-1-13.2-1.5-18.9c-0.3-3-0.5-6.1-0.8-9.1c-0.5-6.8-1.1-14.8-1.4-22.9
	c0-0.7-0.1-1.7-0.2-2.7c-0.5-5.2-1.1-12.2,2-15.9c1.2-1.4,2.9-2.2,4.7-2.3l15.6-0.9c13-0.8,26.4-1.5,39.6-1.9l5.1-0.1l0.5-52.5
	c0-0.6,0-1.3-0.1-1.9c-0.3-0.6-0.6-1.2-1-1.7c-0.3-0.4-0.5-0.8-0.8-1.2c-2-3.1-2.8-6.8-3.4-9.8l-3.7-17.8c-0.3-1.2-0.9-4,0.9-6.4
	c0.6-0.7,1.2-1.3,2-1.7c0-0.1,0-0.2,0-0.3c-0.8-4.8-3.2-9.2-6.8-12.5l-0.8-0.7c-3.4-2.4-5.4-6.4-5.2-10.6c0-1-0.1-2-0.4-2.9
	c-0.5-1.2-1.7-2.3-3.1-3.5c-1.6-1.3-3.1-2.8-4.3-4.5c-3.3-5.2-1.7-11-0.4-16c0.6-2.2,1.1-4.4,1.3-6.6c0.2-3.4-1-6.9-2-10.4
	l-5.2-16.4c-2.5,1.1-5.3,0.7-7.4-1c-1.4-1.3-2.3-2.9-2.7-4.8c-0.1-0.5-0.3-1-0.5-1.5c-0.7-0.1-1.4-0.1-2.1,0l-9.3,0.8
	c-4.9,0.4-6.8-1.7-7.6-3.5c-0.1-0.3-0.3-0.7-0.3-1l-0.6,0l-8.2,0.6l-0.6,0.1c-0.2,0.3-0.3,0.6-0.5,0.9c-0.9,2.3-2.4,4.3-4.2,6
	c-2.3,1.9-6,3-9.3,1.2c-0.5-0.3-0.9-0.6-1.3-0.9l-0.2-0.2c-0.7,0.1-1.3,0.2-2,0.1c-3.3-0.4-5.2-3.3-5.4-6c0-0.1,0-0.2,0-0.3
	c-2.7,0.4-5-1.2-6.6-2.3c-0.5-0.4-1.1-0.7-1.6-1l-0.4,0.5c-1,1.1-3.1,3.7-6.5,2.6c-1-0.3-1.9-0.9-2.6-1.7l-0.1-0.1
	c-0.5,0.1-1.1,0.2-1.6,0.3l-1.1,0.2c0,0.7-0.1,1.5-0.3,2.2c-0.4,1.9-2.3,3.2-4.2,2.8c-0.1,0-0.1,0-0.2,0c-1-0.2-2.1-0.2-3.2,0.2
	c0.4,2.8,0.6,5.5,0.6,8.3c0.2,1.8-0.7,3.6-2.3,4.5c-1,0.6-2.2,0.7-3.4,0.5c-0.1,0.1-0.2,0.3-0.3,0.4c-0.2,0.4-0.4,0.7-0.5,1.1
	c-0.5,1.3-1.3,2.6-2.2,3.7c-1.4,1.5-3.3,2.3-5.4,2.2c-0.9-0.1-1.8-0.3-2.6-0.8c-0.1,0.2-0.3,0.5-0.4,0.7
	C57.3,551.4,54.4,552.2,51.6,552.4z"/>
<path class="st0" d="M201.6,517.8c-1,0-1.9-0.4-2.6-1.1c-1.4-1.5-2.9-3.1-4.3-4.6c-0.2-0.1-0.4-0.3-0.6-0.4
	c-0.1-0.1-0.5-0.5-0.8-0.7c-0.2,0-0.7,0.1-0.9,0.2c-2.1,0.5-4.3,0.9-6.5,1c-2.2,0.2-4.3,0.3-6.4,0.4c-2.1,0.1-3.9,0.2-5.7,0.3
	c-0.2,0-0.6,0-0.8,0.1c-0.1,0.7-0.2,1.4-0.2,2.2c0,1.4-0.3,2.8-0.6,4.2c-0.3,0.8-0.6,1.6-1,2.3c-0.3,0.4-0.5,0.9-0.6,1.3
	c0,0.7,0.2,1.4,0.4,2l0.2,0.7c0.1,0.1,0.2,0.2,0.3,0.3c0.7,0.8,1,1.9,0.7,3l6,19.2c1.2,3.9,2.6,8.3,2.3,13c-0.3,2.7-0.8,5.4-1.6,8
	c-1.1,4.2-2,7.8-0.5,10.4c0.8,1.1,1.8,2.1,2.9,2.9c1.9,1.6,4,3.5,5.1,6.3c0.5,1.6,0.8,3.3,0.8,5c0,1,0.1,2,0.4,3
	c0.6,1,1.4,1.9,2.4,2.6l0.9,0.8c4.8,4.4,8,10.2,9.1,16.6c0.5,1.9,0.1,3.9-1,5.6c-0.6,0.8-1.3,1.4-2.1,1.9c0,0.2,0.1,0.4,0.1,0.7
	l3.7,17.8c0.6,2.6,1.1,5.3,2.4,7.4c0.2,0.3,0.4,0.6,0.6,0.9l0,0c0.9,1.1,1.5,2.3,2,3.7c0.4,1.3,0.5,2.7,0.5,4.1l-0.5,52.2
	c39.7-0.9,50.3-2.8,53.1-3.7c-0.1-5.3-0.5-10.8-0.9-16.1c-0.3-4.5-0.7-9-0.8-13.5c-0.1-4-0.2-8.1-0.3-12.1l-0.1-0.3
	c-0.2-0.7-0.2-1.5,0-2.2c-0.2-7-0.3-13.3-0.3-19c-0.2-22,0.1-44.3,0.8-66.4c-0.1-2.3,0.5-4.6,1.8-6.5c0.6-0.8,1.3-1.4,2.1-2
	c0.3-0.2,0.5-0.4,0.8-0.6c0.7-0.8,0.8-2.6,0.9-4.4l0.6-25.8c0.1-2.8-0.7-5.6-1.5-5.7c-0.6,0.1-1.1,0.2-1.6,0.4c-1.9,0.8-4,1-6.1,0.4
	c-1.7-0.6-2.7-2.3-2.4-4.1c0.6-3,1-6-0.1-7.8c-0.9-1.2-2.7-2.1-4.4-2.9l-17.3-8c-1.2,2.5-3.5,4.4-6.2,5c-2.1,0.3-4.3,0.1-6.3-0.6
	l-1-0.3c-4.5-1.1-9.2-0.2-12.9,2.5C203,517.6,202.3,517.8,201.6,517.8L201.6,517.8z"/>
<path class="st0" d="M317.3,861.1c0.2,0.4,0.4,0.7,0.6,1.1c3.3,5,9.2,7.7,15.1,6.9l1.8-202.8c-10.7,0.9-21.5,1.1-32.2,0.5
	c-2.3-0.1-4.7-0.3-7-0.5l-0.6,0c-10.3-0.8-21-1.5-31,0.8c0.1,3.5,0.2,7,0.3,10.5c0.1,4.4,0.5,8.8,0.8,13.2l0,0.2
	c0.4,5.9,0.9,12.1,0.9,18.2c0,3.4-2.6,4.9-10.2,6.1c-10,1.6-29.3,2.6-59.1,3.2l-3,0.1c-13.3,0.3-26.8,1.1-39.8,1.9l-15.1,0.9
	c-1,1.6-0.4,8.2-0.2,10.4c0.1,1.2,0.2,2.3,0.2,3.2c0.2,7.9,0.8,15.8,1.3,22.5c0.2,3,0.5,6,0.8,9.1c0.5,6.4,1.1,13.6,1.6,21l2.7,0
	l1.4,0c4.6,0,10.1,0.6,14.2,4.1c2.7,2.5,4.1,6.1,3.8,9.7c-0.2,2.9-1.7,5.5-4.2,7c-0.3,0.2-0.6,0.3-0.9,0.5l0,0
	c0.4,0.9,1,1.6,1.7,2.3c2.5,2.4,5.2,4.7,7.7,4.6c0.7-0.1,1.3-0.2,2-0.4c1.9-0.6,3.8-0.7,5.8-0.4c3.2,0.7,5.3,3,6.9,4.8
	c0.5,0.5,0.8,1,1.2,1.4c0.6,0.6,1.3,0.9,2.1,1.1c1.3-1.5,3.6-1.6,5-0.2c1,0.9,1.4,2.2,1.1,3.4c0,0.1,0,0.2,0.1,0.5
	c0.9,1.1,2.2,1.9,3.7,2.1c0.6,0.1,1.3,0.3,1.9,0.4c3.1,0.6,7,1.3,9.7,4.5c1,1.4,1.8,2.9,2.4,4.6c0.2,0.8,0.6,1.6,1,2.3
	c0.7,0.9,1.8,1.4,2.9,1.3c1.2,0.1,2.3-0.5,3-1.4c1-1.7,3.2-2.2,4.8-1.2l8.4,4.9c1.8,1,3.5,2,4.9,1.9c0.8-0.1,1.5-0.3,2.2-0.7
	c1-0.4,2.1-0.7,3.2-1c2.2-0.4,4.4,0,6.3,1.2c5.1-2.8,10.8-4.3,16.6-4.3c1.4,0,2.7,0.1,4.1,0.3c4.2,0.7,8.3,1.8,12.3,3.3
	c4.3,1.5,8.4,2.9,12.5,3.1l0.7,0c3.5-0.2,6.9,1.4,9,4.2c0.4,0.5,0.8,0.9,1.3,1.3c1.1,0.6,2.3,1,3.5,1.2c2.4,0.3,4.6,1.3,6.6,2.7
	C315.2,857.9,316.4,859.4,317.3,861.1z"/>
<path class="st0" d="M578.6,794.9c3.8-3,7.3-6.3,10.5-9.8c3.4-4.1,5.6-8.6,7.9-13.4c0.6-1.3,1.3-2.7,2-4c2-4,2.6-8.6,3.2-13.5
	c0.3-2.5,0.6-5,1.1-7.5c0.1-0.3,0.1-0.6,0.2-0.9c0.3-1.4,0.8-3.5,0.3-4.6c-0.6,0.2-1.2,0.3-1.8,0.3c-1.3,0.1-2.5-0.4-3.4-1.3
	c-0.2-0.2-0.5-0.5-0.7-0.6c-0.6-0.4-1.3-0.7-2-0.8c-0.6,0-1.2,0.1-1.8,0.2c-1.2,0.3-2.4,0.4-3.6,0.1c-3-1-2.9-3.1-2.8-4.1
	c0-0.4,0-0.8,0-1.2c-0.5-1.6-1.3-3-2.4-4.3c-1-1.2-2.3-2.2-3.8-2.9c-1.1-0.6-2.2-1.3-3.3-2c-4.3-3.4-2.8-9-1.8-12.7l0.2-0.6
	c1-3.6,3-5.9,5.2-8.3l0.2-0.2c0.9-0.9,1.8-1.8,2.8-2.6c1.1-0.8,2.1-1.8,2.9-2.8c0.6-0.9,0.8-2.1,0.6-3.2c-1-4.9-8.7-11.3-14.9-15.3
	c-4.3-2.7-8.7-5.9-11.2-11.8c-2.2-5.2-4.5-8-9.4-11.7l-2.3-1.7c-1.9-1.4-3.8-2.9-5.8-4.2c-0.8-0.5-1.6-1-2.5-1.5
	c-2.4-1.3-5.1-2.8-6.9-5.4c-3.1-4.5-1.1-8.7,0.6-12.1c0.8-1.4,1.3-2.9,1.7-4.4c-1.7-0.5-3.3-1.3-4.6-2.4l-21.6-15.9
	c-1.8-1.5-3.9-2.7-6.1-3.7c-0.9-0.3-1.7-0.5-2.6-0.7c-1.9-0.4-3.7-1-5.4-1.9c-1.1-0.6-2.1-1.3-3.1-2.1c-0.9-0.9-2.1-1.6-3.3-2
	c-0.9,0-1.8,0.1-2.6,0.3c-2.2,0.5-5.1,1.1-7.9-0.7c-1.5-1-2.7-2.5-3.5-4.1c-1.9-3.5-4-7.3-6.6-10l-7.6,13c-0.9,1.9-2.5,3.4-4.4,4.3
	c-1.6,0.5-3.4,0.6-5,0.1l-12.1-2.3c-0.9-0.3-1.9-0.3-2.9-0.2c-0.7,0.3-1.4,2-2,3.4l-0.2,0.4c-4.6,11.2-13.7,19.4-21.8,26.7
	c-2.4,2.2-5.2,4.7-8.7,6.1c-2.7,1-5.6,1.6-8.5,1.8c-18.3,1.7-36.7,1.4-54.9-1.1l-0.2,26c0.1,0.3,0.2,0.7,0.3,1.1
	c0.1,0.7-0.1,1.3-0.3,1.9l-2.4,279.8c0,0.6-0.2,1.3-0.5,1.8c0.9,1.4,2,2.6,3.2,3.7c1.5,1.4,2.8,2.9,4,4.6c1.1,1.8,2,3.7,2.6,5.8
	c1.3-1.4,3.2-2.2,5.1-2.2c0.8,0,1.5-0.1,2.2-0.2c1.2-0.2,2.4-0.7,3.4-1.4c0.3-0.4,0.6-0.8,0.9-1.2c0.6-1.1,1.5-2.1,2.5-2.7
	c0.9-0.5,1.9-0.8,2.9-0.9c0.7,0,1.4-0.4,1.8-1c1-1.3,0.9-1.8,0.4-3.6c-0.2-0.6-0.4-1.3-0.5-2c-0.2-1.2-0.3-2.5-0.3-3.8
	c0-2,0-3.1-1.4-4.5c-0.4-0.5-0.9-0.8-1.3-1.2c-2.1-2-4.3-4-2.6-8.7c0.7-2.5,2.8-4.4,5.3-4.9c0.9-0.2,1.8-0.6,2.5-1.1
	c1.8-1.3,0.5-4.6-1.1-7.6c-0.8-1.6-1.6-3.6-0.8-5.5c1-2.2,3.5-2.8,5.7-3.4c3.2-0.9,3.7-1,4.6-4c1.1-3.8,3.1-13-3.1-16.4
	c-1.6-0.9-4-3.2-3.7-5.9c0.2-1.7,1.5-3.1,3.2-3.5c0.7-0.2,1.5-0.3,2.2-0.2c-1.7-1.7-3.5-3.6-4-6.9c-0.3-2.1-0.5-4.2-0.4-6.3
	c0-1.6-0.1-3-0.2-4.5c-0.2-0.9-0.6-1.8-1-2.6c-1.2-2.7-3.2-7.2,0.6-9.5c1-0.7,2.3-0.9,3.5-0.5c2.4,0.7,3.7,3.4,4.7,5.6
	c0.3,0.6,0.6,1.2,0.9,1.8c1,1.4,2.4,1.6,4.9,1.8c2.1,0.2,4.5,0.4,6.6,2c1.1,0.8,2,1.8,2.8,2.9c0.6,0.8,1.2,1.5,2,2.2
	c1.4,0.9,3.4,1.2,6.2,0.7c2.8-0.5,5.5-1.2,8.1-2.2c1.5-0.5,3.1-1,4.7-1.4c6.8-1.9,13.8-3.1,20.8-3.7c5.6-0.5,11.3-0.7,16.9-0.9
	c7.2-0.3,14.7-0.6,21.9-1.4c10.6-1.2,20.7-4.8,30.6-8.2c4.1-1.5,8.4-2.9,12.7-4.3c1.2-0.4,2.5-0.7,3.8-0.9c1.5-0.2,3-0.6,4.4-1.2
	c1.4-0.7,2.7-1.5,4-2.4c1-0.7,1.9-1.4,3-2c6-3.4,13.5-5.4,19.3-4.9c3.6,0.3,6.2-0.2,8.1-3.2c0.5-0.8,0.5-0.8,0.2-1.6
	c-0.3-0.8-0.4-1.6-0.6-2.4c-0.5-4.3,1.7-8.1,3.8-11.3C568.8,803.1,573.8,798.9,578.6,794.9z"/>
<path class="st0" d="M463.3,571.4c0.5,0.2,1,0.3,1.5,0.4l1.1,0.2c0.8,0.2,1.7,0.4,2.5,0.8c1.1-0.6,2.4-0.5,3.4,0.1
	c0.8,0.5,1.4,1.3,1.6,2.2c0.1,0.3,0.1,0.6,0.1,0.9c4.2,3.6,7.1,8.9,9.5,13.3c0.2,0.6,0.6,1.1,1,1.5c0.9,0.1,1.8,0,2.7-0.3
	c1.2-0.3,2.5-0.5,3.8-0.5c0.4,0,0.8,0,1.2,0.1c2.8,0.4,4.9,1.9,6.6,3.3c0.7,0.6,1.5,1.1,2.3,1.6c1.2,0.5,2.4,0.9,3.6,1.2
	c4.2,0.9,8.1,2.8,11.4,5.6l20.5,15c-0.2-0.6-0.4-1.2-0.5-1.8c-0.7-2.4-1.4-4.9-1.8-7.3c-0.7-3.1-0.7-6.4,0-9.5
	c0.5-1.6,1.2-3.1,2.1-4.5c0.5-0.8,1-1.7,1.4-2.6c0.8-2.1,0.7-4.3,0.6-6.8c-0.1-3.2-0.3-6.7,1.7-10.2c2-3.5,4.8-4.9,8.2-3.9
	c0.5,0.1,1,0.3,1.5,0.4c1,0.3,3,1,3.5,0.6c0.1,0,0.3-0.3,0.4-1c0.2-1.4-1-3.2-2.1-4.9c-0.5-0.8-1-1.6-1.5-2.4c-0.3-0.6-3-6-2.7-10
	c0.2-2.8,1.7-5.1,3-7.3c0.7-1,1.3-2.1,1.8-3.2c0.6-1.4,0.3-2.9,0-4.7c-0.1-0.8-0.3-1.7-0.3-2.6c-0.1-2.4,0-4.9,0.4-7.3
	c0.3-1.7,0.4-3.5,0.4-5.2l0-1.3c0-4.5-0.1-8.4,4.7-12.3c3.1-2.5,6.7-6.4,6.3-11c-0.1-0.6-0.4-1.2-0.8-1.7c-0.7-1-1.2-2.1-1.3-3.3
	c-0.3-2.8,1.2-4.6,2.4-6.2c0.3-0.4,0.6-0.8,0.9-1.2c0.6-1,0.6-1.2,0-2.3c-0.8-1.5-1-3.2-0.8-4.8c0.3-1.6,1.1-3.1,2.2-4.3
	c0.7-1,1.1-1.5,1.1-2.1c-0.1-0.7-0.4-1.3-0.8-1.9c-0.8-1.3-2.4-4,0.2-6.2c1.9-1.6,4.3-1.1,6-0.8c0.3,0,0.7,0.1,1,0.2l0,0
	c-0.1-0.9-0.8-1.5-1.9-2.6c-1-0.8-1.9-1.9-2.5-3c-2.5-0.6-5.4-1.4-7.3-4.2c-2.3-3.4-1.5-7.2-0.9-10.3l0.2-1.2
	c0.3-1.1,0.2-2.3-0.3-3.3c-0.2,0-0.9,0.2-1.4,0.3c-1.6,0.4-4,0.9-6.4-0.6c-0.8-0.5-1.5-1.2-2.1-2l-0.3-0.3c-1.6-2-5-2.7-8.6-3.2
	c-3.2-0.5-6.2-0.8-8.1,0.4c-0.9,0.6-2,0.7-3,0.4c-1-0.3-1.7-1-2.1-1.9c-0.7-0.2-1.5-0.1-2.2,0.3c-1,0.6-1.8,1.3-2.7,2.1
	c-1.2,1.2-2.5,2.2-3.9,3c-2.4,1.4-5.4,1.8-8.1,1c-1.7-0.5-3.1-1.7-3.9-3.2l-5.2,0.4c-0.3,2.6-0.5,4.8-0.8,6.9
	c-0.6,5.3-1.5,10.8-4.1,15.9c-2,3.6-4.5,6.8-7.3,9.8l-1.3,1.4c-5.8,6.6-11,13.8-15.5,21.4c-2.2,3.9-5.3,9.2-11.1,10.4
	c-2.2,0.4-4.4,0.3-6.5-0.1c-0.7-0.1-1.3-0.2-1.9-0.3c-1.5-0.1-2.9,0.1-3.2,0.6c-0.3,0.5,0.3,2.2,0.9,3.8c0.7,1.6,1.2,3.4,1.5,5.1
	c0.4,3.8-1.2,7.2-2.8,10l-1,1.8c-2.4,4.3-4.9,8.7-5.1,13.1c-0.3,6.4,3.8,12.1,8.2,18c3.3,4.5,6.6,9.2,8.5,14.5l0.2,0.7
	C462.3,569.7,462.8,571.1,463.3,571.4z"/>
<path class="st0" d="M507.8,433.9L507.8,433.9L507.8,433.9z"/>
<polygon class="st0" points="570.7,455.9 570.7,455.9 570.7,456 570.7,456 "/>
<path class="st0" d="M260.3,1662.8c0.4,0,0.8-0.1,1.2-0.3l0,0c1-0.4,9.5-4.1,7.6-8.8l0,0c-0.3,0.1-0.8,0.4-1.1,0.6
	c-1.7,1-4.2,2.4-7.1,1.3c-0.8-0.4-1.6-0.8-2.4-1.3c-0.4-0.3-0.8-0.5-1.2-0.7c-1.7-0.7-3.4-1.1-5.2-1.2c-1.8-0.1-3.6-0.5-5.3-1
	c-3.3-1.2-5.9-3.6-8.2-5.8c-9.4-9-19.3-17.6-29.5-25.7c-4.7-3.9-9.7-7.4-14.9-10.5l-0.4-0.2c-1.9-1-4-2.2-5.4-4.3
	c-1.1-1.8-1.7-3.9-1.8-6c-0.1-0.8-0.2-1.6-0.4-2.4c-1.1-4.4-4.8-7.7-9.4-8.3c-0.6-0.1-1.3-0.1-2-0.1c-2.1,0.1-4.1-0.3-6-1.2
	c-2-1.2-3.4-3.3-3.6-5.6c-0.4-2.5,0.4-5.1,2.2-7c2.4-2.2,5.8-3,9-2.1c-0.5-1.5-1.5-2.7-2.9-3.4c-0.5-0.2-0.9-0.4-1.4-0.6
	c-1.7-0.4-3.1-1.4-4.3-2.6c-0.8-1.1-1.3-2.4-1.5-3.8l-0.1-0.3c-0.8-3.6-2.2-7-4.3-10c-0.1-0.1-0.1-0.2-0.2-0.3
	c-0.2,0.4-0.3,0.8-0.3,1.3c-0.2,3.7,0.1,7.4,0.7,11.1c0.1,1,0.3,2.1,0.4,3.1c1.2,10.5,0.8,21.2,0.4,31.6c-0.4,10.3-0.8,20.8,0.4,31
	c0.5,4.5,1.3,9,2.1,13.4c1.3,7.2,2.6,14.7,2.7,22.2c9.6-4.9,20.2-7.4,31-7.3c7.7,0,15.3,1.4,22.5,4l2.6,1c5.6,2.2,11.4,4.4,16.3,2.3
	c1.3-0.6,2.6-1.4,3.8-2.3c1-0.7,2.1-1.4,3.2-2c2.9-1.6,7.1-2.5,10.3-0.1c0.5,0.4,1,0.8,1.4,1.3
	C259.5,1662.2,260,1662.7,260.3,1662.8z"/>
<path class="st0" d="M134.8,1524.4c1.5-0.6,3.1-0.9,4.7-1c0.3,0,0.6,0,0.9,0.1c1.6,0.2,3.2,0.7,4.7,1.4c0.9,0.4,1.8,0.7,2.7,0.9
	c0.6,0.1,1.1,0.2,1.7,0.3c2.1,0.3,4.7,0.7,6.4,3.3c0.5,0.7,0.9,1.5,1.2,2.3c0.5,1.2,0.7,1.6,1.6,1.9c1,0.3,2.5,0,4-0.4
	c1.8-0.5,3.7-1,5.6-0.4c0.5,0.1,0.9,0.4,1.3,0.7c-1.1-1.4-2.4-2.7-3.8-3.8c-0.8-0.7-1.6-1.4-2.3-2.1c-2.8-2.8-5.1-6.2-6.7-9.9
	c-0.4-1.1-0.7-2.2-0.9-3.3c-0.3-1.6-0.7-3.2-1.5-3.9c-0.6-0.3-1.2-0.6-1.9-0.7c-1.5-0.4-3.6-0.9-4.7-3c-0.5-1.1-0.7-2.2-0.6-3.4
	c0-0.7-0.1-1.5-0.4-2.1c-1.1-1.9-2.6-3.6-4.4-4.9c-0.3-0.2-0.6-0.4-0.9-0.5c-1-0.5-2.5-1.3-2.5-3c-0.1-1.7,1.6-2.9,2.4-3.4
	c1.1-0.7,2.5-0.9,3.8-0.5l-0.4-0.6c-0.2-0.3-0.4-0.7-0.6-1c-2.1-4.1-2.2-8-2.3-12.1l0-0.3c-0.1-2.4-0.9-5.6-2.4-7.2
	c-0.5-0.4-1.1-0.8-1.7-1c-1.5-0.7-3.6-1.6-4.2-4.2c-0.8-3.3,1.8-5.2,3.4-6.4c0.5-0.3,0.9-0.7,1.3-1.1c1.3-1.5,1.7-4.3,2-6.6l0.1-0.5
	c0.3-1.6,0.5-3.3,0.6-5c0.5-4.6,1.1-9.4,3.3-13.9c2.6-5.2,6.6-8.1,12-8.6c0.5,0,1-0.1,1.5-0.1l0.5,0c-0.2-0.4-0.6-0.6-1.4-1
	c-2.3-0.8-3.7-3-3.6-5.4c0-2,0.7-5.7,3.3-6.9c0.9-0.4,2.8-0.8,5.1,1.2c1.8,1.6,1.8,3.6,1.9,5.1c0,0.7,0.1,1.4,0.4,2.1
	c0.3,0.5,0.8,0.8,1.3,0.7l0,0c2.3,0,5.9-2.5,7-4.1c0.8-1.4,1.5-2.9,2-4.4c0.6-1.8,1.4-3.5,2.3-5.2c1.3-1.8,2.8-3.5,4.4-5
	c1-1,1.9-1.9,2.7-2.8c2.2-2.7,2-5.4,1.7-8.8c-0.2-2-0.2-3.9-0.1-5.9c0.1-0.6,0.2-1.2,0.4-1.7c0.2-0.4,0.2-0.8,0.2-1.2
	c-0.2-0.4-0.4-0.7-0.6-1c-0.9-1-1.5-2.3-1.6-3.7c-0.6-5.6,2.4-9.8,5.1-13.5c0.9-1.2,1.7-2.4,2.5-3.6c0.7-1.2,1.3-2.4,2-3.6
	c0.9-1.8,1.8-3.5,2.9-5.1c2-2.8,4.4-5.4,7-7.7c0.8-0.8,1.7-1.6,2.5-2.4c0.8-0.8,1.5-1.5,2.3-2.3c2.2-2.4,4.6-4.6,7.3-6.4
	c1.5-0.9,3-1.5,4.7-1.9c1.1-0.3,2.3-0.7,3.3-1.3c1.3-0.8,1.9-2,2.6-3.6c0.6-1.6,1.5-3,2.7-4.2c2.5-2.4,5.7-2.2,8.3-1.9
	c1.9,0.1,3.2,0.2,4.1-0.3c-0.2-0.5-0.4-0.9-0.6-1.4c-0.8-1.5-1.8-3.7-1.2-6c0.4-1.4,1.1-2.6,2.1-3.7c0.8-1,1.1-1.3,0.8-2.6
	c-0.1-0.5-0.2-1-0.5-1.4c-0.9,0.2-1.7,0.5-2.5,0.9c-3.5,1.5-6.2,1.5-7.7,0c-1.3-1.4-1.3-3.5,0.1-6.3c1.5-3,3.8-4,5.9-5
	c0.9-0.4,1.7-0.8,2.5-1.3c5.6-3.8,6.6-14.5,3.3-20.3c-0.8-1.4-1.5-2-4-1.8c-0.8,0.1-1.5,0.2-2.2,0.2c-3.4,0.4-6.9,0.8-10.7-2.2
	l-0.4-0.3c-3.1-2.4-4-3.2-7.6-2.6c-0.5,0.1-1.2,0.2-1.8,0.4c-2.5,0.6-5.7,1.3-8.1,0c-2.5-1.4-2.9-4-3.1-5.8c0-0.3-0.1-0.7-0.2-1
	c-0.5-2.5-0.8-2.9-3-4c-1.2-0.7-2.4-1.5-3.5-2.3c-0.5-0.4-1-0.7-1.5-1.1c-1.7-1.1-3.5-2-5.4-2.6c-0.8-0.3-1.5-0.6-2.3-0.9
	c-6.2-2.6-7.6-9.7-8.8-16c-0.3-2.4-1-4.8-1.8-7.1c-1.4-2.7-1.5-5.9-0.4-8.8c-46.7,0.3-93.7,2.8-139.8,7.6c-0.9,2-1.9,3.2-3.2,3.6
	c-1.2,0.3-2.4,0.1-3.5-0.5L32,1222c0.7,1.3,1.8,3,2.4,3.8c0.5,0.8,1,1.4,1.2,1.8c3.4,6.4,7.1,21.4,0.6,29l-0.7,0.8
	c-1.4,1.6-2,2.3-2.2,4.1c-0.2,1.3,0.2,2.6,0.9,3.7c0.5,0.8,0.8,1.6,1.2,2.4c1.4,3.5,0.3,9.2-0.8,12.2c-1.5,4.2-4,6-7.9,7.5
	c-3.6,1.4-3.6,4-3.2,8.7c0.2,2.7,0.4,5.8-0.6,8.6c-0.7,1.7-1.9,3.1-3.4,4.2c-1.2,1-1.9,1.6-2.1,2.7c-0.4,2.1,0.6,3.3,2.4,5.4
	c1,1,1.8,2.1,2.5,3.2c0.7,1.2,1.1,2.5,1.3,3.9c0.1,0.4,0.2,0.8,0.3,1.2c0.2,0.7,0.5,1.3,1,1.8c0.4,0.5,0.7,1.1,1,1.7
	c1.4,2.9,0.6,9.2-1.5,12.1c-0.7,0.9-1.7,1.7-2.7,2.2c-0.7,0.4-1.4,0.8-1.6,1.3c-0.4,0.9,0,3.6,0.2,4.9c0.1,0.4,0.1,0.7,0.1,1
	c0.2,1.2,0.6,2.5,1.1,3.6c0.9,1.9,1.4,4,1.5,6.1c-0.2,8.6-7.9,17.1-14.4,21.7l-0.7,0.5c-2.6,1.8-4,2.9-3.9,5c0.1,1,0.2,2,0.5,3
	c0.5,2.1,1,4.6,0,7.3c-1.1,2.4-2.6,4.6-4.5,6.4c-0.8,0.9-1.6,1.8-2.3,2.8c-1.7,2.3-1.4,4.3-0.2,7.9c1.4,3.6,2,7.5,1.9,11.3l0,0.9
	c-0.2,4.7-0.4,8.4,2.3,11.9c2.9,3.6,3.7,7.2,4.6,11.4l0,0.2c0.3,2,0.3,4.1,0,6.1c-0.2,2-0.4,4.1,0.2,5.4c0.9,1.8,4.8,2.6,7.1,1.9
	c1.7-0.5,1.9-1.5,2.3-4.2c0.1-1.1,0.3-2.3,0.6-3.4c1.4-4.5,3.8-4.7,6.7-4.6c0.4,0,0.8,0,1.2,0.1c0.7-0.1,1.3-0.2,1.9-0.4
	c1.4-0.4,3-0.8,4.5-0.3c1.2,0.5,2.1,1.5,2.6,2.7c0.1,0.2,0.2,0.4,0.3,0.6c1.3,1.6,2.8,3.1,4.4,4.4c4.7,3.9,3,7.6,1.3,11.1l-0.4,0.9
	c-1.3,2.9-1,3.6,0.3,6.1c0.3,0.6,0.6,1.2,0.9,1.9c1.1,2.6,1.4,5.5,1.1,8.2c-0.2,1.6-0.7,3.1-1.5,4.5c-0.5,0.9-0.8,1.8-1,2.7
	c-0.3,1.7,1,4.8,2.3,6.9c1.5,2.4,3.1,3.3,5.6,4.6l1.7,1c4.3,2.5,4.7,6.5,5.1,9.7c0.3,2.8,0.5,4.5,2.1,5.7c2.7,2,6.1,0.5,10.7-1.9
	c1.2-0.6,2.3-1.2,3.3-1.6c4.9-2,9-0.4,12.7,1.1c2.5,1,4.9,2,7.5,1.8c5.4-0.5,10.7-1.5,15.8-3.2l0.7-0.2c1.8-0.6,4.1-1.4,6.3-0.5
	c1.1,0.6,2.1,1.4,2.8,2.5c0.2,0.4,0.5,0.7,0.8,1c0.2,0.2,0.4,0.3,0.5,0.3l0,0c0.8-0.4,1.7-0.6,2.6-0.5c1.5,0.3,2.9,0.9,4.1,1.9
	c0.4,0.3,0.8,0.5,1.3,0.8c3,1.4,5.3,1.9,7.4,1.5C133,1525,133.9,1524.7,134.8,1524.4z"/>
<polygon class="st0" points="190.4,1010.2 190.4,1010.2 190.4,1010.2 "/>
<path class="st0" d="M319.9,1033.3c-0.1-0.8-0.2-1.6-0.3-2.5c0-1.4-0.5-2.7-1.5-3.7l-0.3-0.4c-1.6-2.2-1.6-3.3-0.9-5.2
	c0.2-0.5,0.3-1,0.5-1.5c0.2-0.8,0.2-1.6-0.2-2.4c-0.4-0.6-1.1-1-1.8-1.1c-1.6-0.4-1.7-0.3-2.7,2.4c-0.2,0.6-0.4,1.2-0.7,1.9
	l-0.8,1.8l-1.7-0.5c1.1,2.7,0.5,6.5-1.4,8.6c-2.1,2.2-5.2,2.3-7.8,2.4l-1.4,0.1l-1.4,0.1c-4.8,0.6-9.3,0.9-11.3-1.4
	c-2.3-2.6,0-6,1.8-8.7c0.4-0.6,1.1-1.6,1.4-2.3c-0.5,0-0.9,0-1.4,0.1c-0.8,0.1-1.6,0.4-2.3,1c-0.7,0.6-1.5,1-2.3,1.4
	c-3.3,1.5-6.9,0.1-9.8-1.1c-0.5-0.2-1-0.4-1.5-0.6s-1.1-0.4-1.5-0.5c-2.8-0.9-6.3-2-5.3-7.7c0.2-1,0.4-1.8,0.6-2.6
	c-25.8-1.2-52.3,0.3-75.7,1.5l-0.1,0c-53.6,2.9-108.9,5.9-163.2,11.7c-1.2,0.1-2.3,0.3-3.2,0.4c0.7,2.5-0.2,5.2-2.3,6.8
	c-1.7,1.3-3.9,1.7-5.9,1.2c-1.6-0.3-1.9-0.3-2.6,1.1c-0.8,1.8-0.3,3.8,0.3,6.1c0.8,2.9,1.7,6.1-0.2,9.4c-0.8,1.1-1.9,2-3.2,2.6
	c-0.4,0.2-0.9,0.5-1.3,0.8c0.2,1.5,0.6,3,1.2,4.5c0.3,0.7,0.5,1.5,0.7,2.3c0.2,0.9,0.3,1.9,0.4,2.9c0,1.2,0.2,2.3,0.6,3.4
	c0.2,0.4,0.4,0.5,2.1,0.7c0.5,0,1.1,0.1,1.6,0.2l0.9,0.1c1.9,0.3,5.1,0.7,5.7,4.4c0.4,2.7-1.1,5.4-2.3,7.5c-0.3,0.5-0.6,1-0.8,1.5
	c-2.1,4.3-1,6.3,1.2,10.6l0.2,0.4c0.5,1,1.2,1.8,2.1,2.4l0.7,0.6c2.5,2.1,3.2,5,3.7,7.3c1.1,4.6,1.9,9.9-0.6,13.7
	c-0.4,0.5-0.8,1-1.2,1.5l-0.1,0.1c0,0.1,0,0.2,0.1,0.3c0.2,0.6,0.6,1.1,1.1,1.4c0.8,0.7,1.5,1.6,2,2.7c1.2,3-0.5,6.4-1.9,9.5
	c-0.7,1.2-1.2,2.5-1.6,3.9c-0.5,2.3,0.4,5.2,1,6c0.4-0.4,0.8-0.8,1.1-1.3l0.3-0.4c1-1.5,2.4-3.7,5.2-3.8c2.2-0.1,3.1,0.6,3.8,1.8
	c0.1,0.2,0.3,0.5,0.5,0.7c0.2,0.2,0.5,0.5,0.7,0.7l0.4-0.4c0.9-1.1,2.1-1.9,3.5-2.4c1.8-0.5,3.6,0,5,1.2c2.2,1.7,3.5,4.3,3.6,7.1
	c-0.1,1.9-1.2,3.7-2.2,5.2c-0.4,0.6-0.8,1.3-1.1,2l-0.2,0.6c-0.6,1.5-1.3,3.3-3.2,4.1c-1.2,0.5-2.6,0.4-3.8-0.2
	c-0.7-0.3-1.4-0.8-1.9-1.4l-0.1,0c-0.9,0.3-1.7,0.7-2.5,1.2c-0.6,0.4-1.1,0.7-1.7,1c-2.3,1.1-4.9,2.4-8.3,0.5
	c-0.6-0.3-1.2-0.7-1.7-1.2c-0.7-0.6-0.7-0.6-1.3-0.4c-0.4,0.1-0.7,0.3-1,0.5c0.7,1,1.5,2,2.4,2.9c1.7,1.7,3.3,3.4,3.5,5.3
	c0.1,1,0,2-0.3,2.9c-0.2,0.6-0.3,1.2-0.2,1.8c0.7,0.8,2.3,0.6,4.6,0c1.3-0.3,2.7-0.5,4-0.5c1.2,0,2.3,0.3,3.3,0.8
	c1.2,0.8,2.3,1.7,3.3,2.8c0.6,0.7,1.3,1.3,2,1.9l0.9,0.6c1.8,1.2,3.9,2.5,3.8,6c-0.1,5.2-3.9,10.2-11.5,15.3c-4,2.7-4.3,3.6-2.2,7.8
	c0.7,1.1,1.5,2.1,2.4,3c1.7,1.8,3.4,3.6,3.8,5.9c46.8-4.8,94.5-7.3,141.9-7.5c1.9-3.7,3.9-7.3,5.9-10.9l2-3.5
	c0.4-0.8,0.8-1.5,1.2-2.3c1.3-2.6,2.6-5.4,5.1-7.4c0.5-0.4,0.9-0.7,1.4-1c1.1-0.7,1.7-1.2,1.9-1.8c0-0.2,0-0.4-0.1-0.5
	c-0.3-1.2-0.1-2.5,0.5-3.5c0.9-1.5,3.4-2.4,4.4-2.6c1.7-0.2,3.4,0,5,0.7c1.6,0.5,2.6,0.8,3.2,0.4c0.5-0.3,0.9-0.6,1.2-1
	c1-1.2,2.3-1.9,3.9-2.2l0.8-0.2l0.3,0l-0.2-0.2c-0.7-0.7-2.8-2.7-0.7-5.5c1.2-1.6,3.1-1.9,4.6-2.2c0.6-0.1,1.2-0.2,1.8-0.5
	c0.7-0.6,1.3-1.4,1.6-2.3c0.9-1.6,2-3.5,4.3-4.4c1.9-0.8,6-1.1,7.2,1.6c0.2,0.5,0.3,1,0.3,1.6c1.9-1.3,5.4-1.6,7.4,0.2
	c0.8,0.8,1.3,1.7,1.5,2.8l0.1,0.3c1.5-1.1,2.7-2.5,3.6-4.1l0,0c-0.7-0.2-1.4-0.3-2.1-0.4c-2.1-0.3-5-0.6-5.9-3.4
	c-0.7-2.2,0.2-4.6,1-6.7c0.4-0.9,0.7-1.8,0.9-2.7c0-0.5,0-1.1,0-1.6c0-1.7-0.1-4.7,3.7-5.5c1.7-0.2,3.5,0.2,4.8,1.2
	c0.4,0.3,0.8,0.5,1.2,0.6l0,0c0.1,0,0.2,0,0.2,0c0.2-0.5,0.3-1.1,0.3-1.6c0.1-0.4,0.1-0.7,0.2-1c0.5-2.6,1.1-3.5,2.9-4.3
	c0.5-0.2,1-0.5,1.5-0.8c1-0.7,1.3-1.8,1.7-3.8l0.1-0.6c0.1-0.3,0.1-0.6,0.2-0.9c-0.3-0.2-0.7-0.5-1.2-0.9c-4.3-3.3-1.9-7.6-0.4-10.2
	l0.4-0.7c1.2-2.1,0.4-4.1-0.8-7.2c-1.1-2.7-2.4-5.8-1.7-9.5c1.7-7.2,4.6-14.1,8.8-20.2c2.9-4.6,9.2-12.6,18.3-15
	c0.5-0.1,1.2-0.2,2.1-0.4l0.8-0.1c-1,0-2-0.1-3-0.3c-2.3-0.6-4.5-1.6-6.5-3c-0.9-0.5-1.7-1-2.5-1.5c-0.8-0.4-1.7-0.7-2.5-1
	c-2.9-1.1-6.2-2.3-7.7-5c-0.9-1.4-1.1-3.3-0.4-4.8c1.3-2.7,5-3.3,7.6-3.8l0.1,0c2.3-0.5,4.6-1.4,6.7-2.6c4.6-2.3,9.9-4.9,16.3-1
	c4.8,3,4.8,6.3,4.8,10.1l0,1.1c0,1.5,0,1.5,2.1,2.4c2.4,1,2.4,1,4.8-0.8l0.8-0.6c1.5-1.1,3.1-2,4.8-2.8c1.8-0.8,3.5-1.8,5-3.1
	C320.8,1040.6,320.4,1037.2,319.9,1033.3z"/>
<path class="st1" d="M192.4,29.6c0.1-6.8,3.3-13.3,8.7-17.4c4.3-3.5,9.9-5.2,15.4-4.8c7,0.3,13.4,3.9,17.3,9.7c2.9,4,4.3,8.9,4,13.9
	c-0.2,2.3-0.7,4.6-1.6,6.8c-1.3,3.4-2.9,6.6-4.9,9.7l-8,13.2c-2.6,4.3-5.2,8.6-7.8,12.9c-0.4,0.6-0.5,0.6-0.9,0l-11.5-19
	c-2.3-3.8-4.7-7.7-6.9-11.5c-2-3.6-3.3-7.5-3.8-11.6c0-0.1,0-0.2,0-0.3L192.4,29.6z M225.4,30c0-5.8-4.7-10.4-10.5-10.4
	c-5.8,0-10.4,4.7-10.4,10.5c0,5.8,4.7,10.4,10.5,10.4C220.8,40.5,225.5,35.8,225.4,30L225.4,30z"/>
<path class="st2" d="M293.6,112.3c0.1-6.8,3.3-13.3,8.7-17.4c4.3-3.5,9.8-5.2,15.4-4.8c7,0.3,13.4,3.9,17.3,9.7
	c2.9,4,4.3,8.9,4.1,13.9c-0.2,2.3-0.8,4.6-1.6,6.8c-1.3,3.4-2.9,6.6-4.9,9.6c-2.7,4.4-5.3,8.8-8,13.2l-7.8,12.9
	c-0.4,0.6-0.5,0.6-0.9,0c-3.8-6.3-7.6-12.7-11.5-19c-2.3-3.8-4.7-7.6-6.9-11.5c-2-3.5-3.3-7.4-3.9-11.5c0-0.1,0-0.2,0-0.3
	L293.6,112.3z M326.7,112.8c0-5.8-4.7-10.5-10.5-10.4s-10.5,4.7-10.4,10.5s4.7,10.5,10.5,10.4c0,0,0,0,0,0
	C322.1,123.2,326.7,118.5,326.7,112.8L326.7,112.8z"/>
<path class="st1" d="M223,222.1c0.1-6.8,3.3-13.3,8.7-17.5c4.3-3.5,9.9-5.2,15.4-4.8c7,0.3,13.4,3.9,17.3,9.7c2.9,4,4.3,8.9,4,13.9
	c-0.2,2.3-0.8,4.6-1.6,6.8c-1.3,3.4-2.9,6.6-4.9,9.6c-2.7,4.4-5.3,8.8-8,13.2c-2.6,4.3-5.2,8.6-7.8,12.9c-0.4,0.6-0.5,0.6-0.9,0
	l-11.5-19c-2.3-3.8-4.7-7.7-6.9-11.5c-2-3.5-3.3-7.4-3.9-11.5c0-0.1,0-0.2,0-0.3C223,223.1,223,222.6,223,222.1z M256,222.6
	c0-5.8-4.7-10.4-10.5-10.4c-5.8,0-10.4,4.7-10.4,10.5c0,5.8,4.7,10.4,10.5,10.4C251.4,233,256,228.3,256,222.6z"/>
<path class="st1" d="M143.1,228.4c0.1-6.8,3.3-13.3,8.7-17.5c4.3-3.5,9.8-5.2,15.4-4.8c7,0.3,13.4,3.9,17.3,9.7
	c2.9,4,4.3,8.9,4.1,13.9c-0.2,2.3-0.8,4.6-1.6,6.8c-1.3,3.4-2.9,6.6-4.9,9.6l-8,13.2l-7.8,12.9c-0.4,0.6-0.5,0.6-0.9,0l-11.5-19
	c-2.3-3.9-4.7-7.7-6.9-11.5c-2-3.5-3.3-7.4-3.9-11.5c0-0.1,0-0.2,0-0.3L143.1,228.4z M176.2,228.9c0-5.8-4.7-10.4-10.5-10.4
	c-5.8,0-10.4,4.7-10.4,10.5c0,5.8,4.7,10.4,10.5,10.4c0,0,0,0,0,0C171.6,239.3,176.2,234.6,176.2,228.9z"/>
<path class="st1" d="M75.7,417.6c0.1-6.8,3.3-13.3,8.7-17.5c4.3-3.5,9.8-5.2,15.4-4.8c7,0.3,13.4,3.9,17.3,9.7
	c2.9,4,4.3,8.9,4.1,13.9c-0.2,2.3-0.8,4.6-1.6,6.8c-1.3,3.4-2.9,6.6-4.9,9.6c-2.7,4.4-5.3,8.8-8,13.2l-7.8,12.9
	c-0.4,0.6-0.5,0.6-0.9,0c-3.8-6.3-7.7-12.7-11.5-19c-2.3-3.8-4.7-7.7-6.9-11.5c-2-3.5-3.3-7.4-3.9-11.5c0-0.1,0-0.2,0-0.3
	L75.7,417.6z M108.7,418.1c0-5.8-4.7-10.4-10.5-10.4c-5.8,0-10.4,4.7-10.4,10.5c0,5.8,4.7,10.4,10.5,10.4
	C104.1,428.6,108.7,423.8,108.7,418.1L108.7,418.1z"/>
<path class="st1" d="M163.5,354.4c0.1-6.8,3.3-13.3,8.7-17.5c4.3-3.5,9.8-5.2,15.4-4.8c7,0.3,13.4,3.9,17.3,9.7
	c2.9,4,4.3,8.9,4,13.9c-0.2,2.3-0.7,4.6-1.6,6.8c-1.3,3.4-2.9,6.6-4.9,9.6c-2.7,4.4-5.3,8.8-8,13.2l-7.8,12.9
	c-0.4,0.6-0.5,0.6-0.9,0c-3.8-6.3-7.6-12.7-11.5-19c-2.3-3.8-4.7-7.7-6.9-11.5c-2-3.5-3.3-7.4-3.9-11.5c0-0.1,0-0.2,0-0.3
	L163.5,354.4z M196.5,354.8c0-5.8-4.7-10.5-10.5-10.4c-5.8,0-10.5,4.7-10.4,10.5c0,5.8,4.7,10.5,10.5,10.4c0,0,0,0,0,0
	C191.9,365.3,196.5,360.6,196.5,354.8z"/>
<path class="st1" d="M436.3,173.2c0.1-6.8,3.3-13.3,8.7-17.5c4.3-3.5,9.8-5.2,15.4-4.8c7,0.3,13.4,3.9,17.3,9.7
	c2.9,4,4.3,8.9,4.1,13.9c-0.2,2.3-0.8,4.6-1.6,6.8c-1.3,3.4-2.9,6.6-4.9,9.6c-2.7,4.4-5.3,8.8-8,13.2c-2.6,4.3-5.2,8.6-7.8,12.9
	c-0.4,0.6-0.5,0.6-0.9,0c-3.8-6.3-7.6-12.7-11.5-19c-2.3-3.8-4.7-7.6-6.9-11.5c-2-3.5-3.3-7.4-3.9-11.5c0-0.1,0-0.2,0-0.3
	L436.3,173.2z M469.4,173.7c0-5.8-4.7-10.4-10.5-10.4s-10.4,4.7-10.4,10.5c0,5.8,4.7,10.4,10.5,10.4c0,0,0,0,0,0
	C464.8,184.1,469.4,179.4,469.4,173.7z"/>
<path class="st1" d="M421.3,362.2c0.1-6.8,3.3-13.3,8.7-17.5c4.3-3.5,9.9-5.2,15.4-4.8c7,0.3,13.4,3.9,17.3,9.7
	c2.9,4,4.3,8.9,4,13.9c-0.2,2.3-0.8,4.6-1.6,6.8c-1.3,3.4-2.9,6.6-4.9,9.6c-2.7,4.4-5.3,8.8-8,13.2c-2.6,4.3-5.2,8.6-7.8,12.9
	c-0.3,0.6-0.5,0.6-0.9,0L432,387c-2.3-3.8-4.7-7.7-6.9-11.5c-2-3.5-3.3-7.4-3.9-11.5c0-0.1,0-0.2,0-0.3
	C421.3,363.1,421.3,362.7,421.3,362.2z M454.3,362.6c0-5.8-4.8-10.4-10.5-10.4c-5.8,0-10.4,4.8-10.4,10.5c0,5.8,4.7,10.4,10.5,10.4
	C449.7,373.1,454.4,368.4,454.3,362.6L454.3,362.6z"/>
<path class="st2" d="M293.6,455.4c0.1-6.8,3.3-13.3,8.7-17.5c4.3-3.5,9.8-5.2,15.4-4.8c7,0.3,13.4,3.9,17.3,9.7
	c2.9,4,4.3,8.9,4.1,13.9c-0.2,2.3-0.8,4.6-1.6,6.8c-1.3,3.4-2.9,6.6-4.9,9.6c-2.7,4.4-5.3,8.8-8,13.2l-7.8,12.9
	c-0.4,0.6-0.5,0.6-0.9,0c-3.8-6.3-7.6-12.7-11.5-19c-2.3-3.8-4.7-7.7-6.9-11.5c-2-3.5-3.3-7.4-3.9-11.5c0-0.1,0-0.2,0-0.3
	L293.6,455.4z M326.7,455.9c0-5.8-4.7-10.4-10.5-10.4s-10.4,4.7-10.4,10.5c0,5.8,4.7,10.4,10.5,10.4
	C322.1,466.4,326.7,461.6,326.7,455.9L326.7,455.9z"/>
<path class="st1" d="M553,300.7c0.1-6.8,3.3-13.3,8.7-17.5c4.3-3.5,9.9-5.2,15.4-4.8c7,0.3,13.4,3.9,17.3,9.7c2.9,4,4.3,8.9,4,13.9
	c-0.2,2.3-0.7,4.6-1.6,6.8c-1.3,3.4-2.9,6.6-4.9,9.6c-2.7,4.4-5.3,8.8-8,13.2s-5.2,8.6-7.8,12.9c-0.3,0.6-0.5,0.6-0.9,0l-11.5-19
	c-2.3-3.8-4.7-7.7-6.9-11.5c-2-3.5-3.3-7.4-3.9-11.5c0-0.1,0-0.2,0-0.3L553,300.7z M586.1,301.1c0-5.8-4.7-10.4-10.5-10.4
	c-5.8,0-10.4,4.7-10.4,10.5c0,5.8,4.7,10.4,10.5,10.4C581.5,311.6,586.1,306.9,586.1,301.1z"/>
<path class="st2" d="M444.1,677.6c0.1-6.8,3.3-13.3,8.7-17.5c4.3-3.5,9.9-5.2,15.4-4.8c7,0.3,13.4,3.9,17.3,9.7
	c2.9,4,4.3,8.9,4,13.9c-0.2,2.3-0.7,4.6-1.6,6.8c-1.3,3.4-2.9,6.6-4.9,9.6c-2.7,4.4-5.3,8.8-8,13.2s-5.2,8.6-7.8,12.9
	c-0.3,0.6-0.5,0.6-0.9,0l-11.5-19c-2.3-3.8-4.7-7.7-6.9-11.5c-2-3.6-3.3-7.5-3.9-11.5c0-0.1,0-0.2,0-0.3L444.1,677.6z M477.1,678
	c0-5.8-4.8-10.4-10.5-10.4c-5.8,0-10.4,4.8-10.4,10.5c0,5.8,4.7,10.4,10.5,10.4C472.5,688.5,477.2,683.8,477.1,678z"/>
<path class="st2" d="M322.4,195.2c0.1-6.8,3.3-13.3,8.7-17.5c4.3-3.5,9.8-5.2,15.4-4.8c7,0.3,13.4,3.9,17.3,9.7
	c2.9,4,4.3,8.9,4.1,13.9c-0.2,2.3-0.8,4.6-1.6,6.8c-1.3,3.4-2.9,6.6-4.9,9.6l-8,13.2l-7.8,12.9c-0.4,0.6-0.5,0.6-0.9,0
	c-3.8-6.3-7.7-12.7-11.5-19c-2.3-3.8-4.7-7.7-6.9-11.5c-2-3.5-3.3-7.4-3.9-11.5c0-0.1,0-0.2,0-0.3L322.4,195.2z M355.5,195.6
	c0-5.8-4.7-10.4-10.5-10.4s-10.4,4.7-10.4,10.5c0,5.8,4.7,10.4,10.5,10.4c0,0,0,0,0,0C350.9,206.1,355.5,201.4,355.5,195.6
	L355.5,195.6z"/>
</svg>
