<svg xmlns="http://www.w3.org/2000/svg" width="133.59" height="195.4" viewBox="0 0 133.59 195.4"><path d="M33.07,67.54A66.52,66.52,0,0,1,58.6,16.2,64.63,64.63,0,0,1,103.77,2.12a64.38,64.38,0,0,1,50.75,28.46,62.86,62.86,0,0,1,11.74,40.77,68.22,68.22,0,0,1-4.7,20,140.94,140.94,0,0,1-14.37,28.16c-7.92,12.91-15.55,25.82-23.47,38.73S108.47,183.42,100.84,196c-.88,1.76-1.47,1.76-2.64,0L64.46,140.29c-6.74-11.14-13.79-22.59-20.24-33.73A99.85,99.85,0,0,1,32.78,72.82v-.88Zm96.81,1.17A30.66,30.66,0,1,0,99.37,99.52,30.37,30.37,0,0,0,129.88,68.71Z" transform="translate(-32.78 -1.95)" fill="#f09e07"/></svg>