<svg xmlns="http://www.w3.org/2000/svg" width="500" height="183.2" viewBox="0 0 500 183.2"><text transform="matrix(0.98, 0, -0.17, 0.98, 103.28, 149.53)" font-size="31.07" fill="#fff" font-family="Ebrima-Bold, Ebrima" font-weight="700">Logística &amp; Postal</text><polygon points="449.02 109.55 54.23 109.55 50.98 114.87 445.71 114.87 449.02 109.55" fill="#fff"/><polygon points="163.33 78.5 160.69 93.33 193.69 93.33 203.15 78.35 163.33 78.5" fill="#fff"/><polygon points="219.88 68.79 213.86 79.8 255.3 79.66 258.2 68.64 219.88 68.79" fill="#fff"/><polygon points="238.9 24.45 250.89 24.45 213.86 93.33 197.59 93.33 238.9 24.45" fill="#fff"/><polygon points="250.89 24.45 238.9 24.45 248.04 93.33 265.41 93.33 250.89 24.45" fill="#fff"/><polygon points="362.65 66.36 473.65 66.36 482.92 51.53 362.65 51.53 362.65 66.36" fill="#fff"/><polygon points="373.18 46.08 486.5 46.08 491.87 37.5 371.93 37.5 373.18 46.08" fill="#fff"/><polygon points="126.3 24.61 141.36 24.61 129.12 93.33 114.06 93.33 126.3 24.61" fill="#fff"/><polygon points="126.26 24.59 123.65 39.43 165.1 39.29 167.71 24.45 126.26 24.59" fill="#fff"/><polygon points="126.27 51.53 123.64 66.46 153.46 66.32 162.85 51.53 126.27 51.53" fill="#fff"/><polygon points="328.34 51.66 325.68 66.44 367.13 66.29 369.79 51.52 328.34 51.66" fill="#fff"/><polygon points="172.95 24.45 188.02 24.45 175.75 93.33 160.69 93.33 172.95 24.45" fill="#fff"/><polygon points="332.46 24.45 347.52 24.45 335.26 93.34 320.19 93.34 332.46 24.45" fill="#fff"/><polygon points="365.63 24.45 380.7 24.45 368.43 93.34 353.37 93.34 365.63 24.45" fill="#fff"/><polygon points="127.71 51.52 17.4 51.52 8.13 66.35 119.62 66.35 127.71 51.52" fill="#fff"/><polygon points="130.87 37.45 26.33 37.45 20.97 46.04 132.12 46.04 130.87 37.45" fill="#fff"/><path d="M302.57,24s-13.68-1.12-23.5,7.35c-7.6,6.55-9.94,18.48-3.56,25.71,4.07,4.62,10.18,6.37,17.23,8.36l-10.32-21Z" fill="#fff"/><path d="M311.23,55a53.75,53.75,0,0,0-9.4-3.52c-2.21-.61-4-1-9.71-2.55-4.92-1.35-4.15-6.36-2.23-8.5a12.91,12.91,0,0,1,10-4h.18c.41,0,.82,0,1.23.07a13.74,13.74,0,0,1,3.68.71l.32.08v0c2.92,1.11,4.92,3.26,6.57,6.38l10.66-8.85a24.55,24.55,0,0,0-20.93-10.89q-11.42,0-18.74,6.52t-8.39,15.08a16.45,16.45,0,0,0,1.29,9.32,14,14,0,0,0,5.81,6.3,45.74,45.74,0,0,0,10.63,4.06q7.43,2.08,9.36,3.54c1.29,1,1.79,2.54,1.52,4.71a8,8,0,0,1-3.48,5.63,13.82,13.82,0,0,1-8.27,2.22c-7.68,0-10.67-2.14-15.49-9l-10.06,8s2.8,5.34,6.21,8c4.52,3.5,9.76,5.49,17.18,5.49q13,0,20.86-6.4a23.79,23.79,0,0,0,9-15.94,17.46,17.46,0,0,0-1.29-10.06A14.23,14.23,0,0,0,311.23,55Z" fill="#fff"/></svg>